<svg width="238" height="214" viewBox="0 0 238 214" fill="none" xmlns="http://www.w3.org/2000/svg">
<path d="M82.2905 120C84.2058 121.133 86.5427 122.549 89 124.039C81.9412 126.502 76.6652 136.698 76.7615 144C73.7862 141.783 71.6662 140.183 71.0037 139.653C70.9306 135.632 71.9461 131.669 73.9378 128.201C75.9296 124.732 78.8202 121.894 82.2905 120Z" fill="#E6E7E8"/>
<path d="M177 168.173C176.563 171.527 176.174 174.265 175.894 175.866C170.754 178.237 159.307 176.897 153 171.788C153.207 170.093 153.535 167.295 153.924 164C158.067 168.469 170.207 170.816 177 168.173Z" fill="#E6E7E8"/>
<path d="M109.258 141.546C107.405 136.552 106.009 131.393 105.086 126.135C105.54 122.059 106.313 114.008 106.497 112.297C106.62 110.93 106.374 109.555 105.785 108.322C107.268 103.826 110.023 99.8847 113.699 97C114.78 97.3374 115.883 97.5939 117 97.7674C108.313 111.09 111.074 131.897 115.442 154C101.945 145.194 84.5583 134.451 81 131.884C82.9487 128.484 85.9314 125.832 89.4908 124.336L98.2393 129.658C101.466 132.916 105.454 137.206 109.258 141.546Z" fill="#E6E7E8"/>
<path d="M137.263 122.691C137.065 125.233 134.784 154.875 134.189 159.614C132.862 171.547 123.663 176.113 110.547 167.684C102.315 162.415 85.9013 150.691 77 144.2C77.1471 139.724 78.5374 135.375 81.0167 131.638C84.6243 134.106 102.092 144.645 115.816 153.345C111.39 131.675 108.613 111.264 117.39 98.1953C124.829 99.3553 134.412 97.64 137.226 93C143.983 96.7021 152.202 101.157 159.293 105.489C180.765 118.606 181.298 123.419 180.939 131.12C180.604 138.215 178.695 156.257 177.22 167.499C170.29 170.251 157.905 167.795 153.665 163.131C154.905 152.9 156.553 138.166 156.727 136.204L154.805 135.735C148.418 132.157 142.522 127.773 137.263 122.691Z" fill="#E6E7E8"/>
<path d="M162.02 52C162.307 52.1291 162.55 52.3292 162.723 52.5784C162.896 52.8276 162.991 53.1163 162.999 53.4127C163.007 53.7092 162.927 54.0019 162.768 54.2589C162.609 54.5158 162.377 54.727 162.097 54.8692C161.146 55.4282 160.083 55.8023 158.973 55.9691C157.122 56.2321 155.849 54.7736 158.562 53.3031C159.796 53.0871 160.972 52.6441 162.02 52Z" fill="#E6E7E8"/>
<path d="M161.998 49C163.334 49.403 163.334 50.9477 161.998 51.7424C160.893 52.349 159.652 52.7603 158.351 52.9513C156.281 53.2871 154.651 51.8319 157.63 50.2761C159.21 50.2489 160.74 49.8021 161.998 49Z" fill="#E6E7E8"/>
<path d="M162.212 48.7425C161.486 49.2283 160.65 49.5856 159.754 49.7928C158.858 49.9999 157.921 50.0525 157 49.9473C157.309 49.6466 157.484 49.2652 157.494 48.8687C157.494 48.3982 157.494 47.8015 157.494 47.1475C159.068 47.0286 160.595 46.6379 161.979 46C162.267 46.1304 162.511 46.3195 162.689 46.5498C162.867 46.7801 162.972 47.0442 162.995 47.3177C163.018 47.5911 162.959 47.865 162.822 48.1141C162.685 48.3631 162.475 48.5793 162.212 48.7425Z" fill="#E6E7E8"/>
<path d="M161.243 43.1104C162.323 43.5397 162.31 45.3869 160.797 46.0504C159.684 46.5528 158.504 46.8731 157.298 47C157.261 46.053 157.161 45.1098 157 44.1771C158.104 43.4877 160.275 42.7071 161.243 43.1104Z" fill="#E6E7E8"/>
<path d="M158 67.0982C153.61 67.9756 149.113 68.2145 144.652 67.8073C144.652 66.976 144.439 65.4968 144.302 63.8221C143.54 54.9227 144.302 53.1013 145.663 50.6075C146.905 48.34 148.391 46.209 150.096 44.2508C151.007 43.4073 153.992 43.175 155.278 43.0283C156.789 42.8816 157.176 43.285 157.476 44.7031C157.744 46.1831 157.84 47.6882 157.763 49.1894C157.763 50.6075 156.09 52.2578 154.616 46.5001C155.041 48.1656 155.041 49.9077 154.616 51.5732C154.717 54.0579 155.419 56.4836 156.664 58.6512C156.514 59.9592 157.825 65.6313 158 67.0982Z" fill="#E6E7E8"/>
<path d="M102.594 115.814C101.065 118.308 99.7752 118.248 97.8662 117.213C96.918 117.882 95.9193 117.627 94.5159 116.836C93.6689 117.481 92.8471 117.298 91.6841 116.556C89.8383 115.339 89.4211 113.027 89.5854 111.153C86.4585 109.777 83.8206 107.547 82 104.74C84.3894 100.772 90.1038 97.5476 94.3389 97C97.095 99.8719 101.722 104.07 105.161 107.271C105.834 107.937 106.344 108.739 106.655 109.619C106.965 110.499 107.068 111.435 106.956 112.358C106.817 113.988 105.287 127.472 105.237 127.813C104.921 129.869 102.43 131.001 102.594 115.814Z" fill="#E6E7E8"/>
<path d="M133.321 164.972C133.231 164.954 133.149 164.899 133.091 164.819C133.032 164.738 133 164.636 133 164.531C133 164.426 133.032 164.324 133.091 164.244C133.149 164.163 133.231 164.109 133.321 164.09L153.559 160.004C153.658 159.989 153.759 160.018 153.841 160.086C153.922 160.155 153.977 160.257 153.994 160.371C154.012 160.485 153.99 160.602 153.933 160.698C153.877 160.794 153.791 160.861 153.692 160.886C130.231 165.602 133.454 164.972 133.321 164.972Z" fill="#F3387E"/>
<path d="M63.034 75.6522L60.006 58.6203C59.9876 58.5155 60.012 58.4077 60.0737 58.3206C60.1355 58.2336 60.2296 58.1743 60.3354 58.156L95.5189 52.0059C95.6265 51.9876 95.7369 52.0123 95.826 52.0747C95.9151 52.1371 95.9756 52.232 95.9941 52.3385C96.0125 52.445 95.9875 52.5544 95.9246 52.6427C95.8616 52.731 95.7658 52.7909 95.6583 52.8092L60.8802 58.8839L63.8322 75.5142C63.8437 75.567 63.8442 75.6216 63.8338 75.6747C63.8235 75.7277 63.8024 75.7781 63.7719 75.8229C63.7414 75.8677 63.7021 75.906 63.6563 75.9354C63.6106 75.9648 63.5593 75.9847 63.5055 75.994C63.4518 76.0033 63.3967 76.0018 63.3436 75.9895C63.2905 75.9772 63.2404 75.9544 63.1964 75.9225C63.1524 75.8906 63.1153 75.8502 63.0874 75.8038C63.0595 75.7573 63.0414 75.7058 63.034 75.6522Z" fill="#F3387E"/>
<path d="M71.1811 118.737L66.0038 91.4462C65.9892 91.3454 66.017 91.2432 66.0816 91.1611C66.1461 91.079 66.2423 91.0234 66.3499 91.0059C66.4576 90.9884 66.5684 91.0104 66.659 91.0672C66.7496 91.1241 66.813 91.2115 66.8359 91.3109L72 118.651C71.9893 118.739 71.9466 118.822 71.8789 118.885C71.8112 118.948 71.7226 118.988 71.6274 118.998C71.5323 119.008 71.4363 118.987 71.3553 118.94C71.2742 118.892 71.2128 118.821 71.1811 118.737Z" fill="#F3387E"/>
<path d="M80.6918 174C80.5974 174.002 80.5054 173.97 80.4321 173.91C80.3588 173.85 80.3089 173.766 80.2912 173.673L75.0089 143.487C74.9976 143.434 74.9971 143.379 75.0073 143.326C75.0175 143.273 75.0383 143.222 75.0685 143.177C75.0986 143.133 75.1375 143.094 75.1827 143.065C75.2279 143.035 75.2786 143.015 75.3317 143.006C75.3848 142.997 75.4392 142.998 75.4916 143.011C75.5441 143.023 75.5936 143.046 75.6371 143.078C75.6806 143.11 75.7172 143.15 75.7448 143.197C75.7723 143.243 75.7903 143.295 75.7975 143.348L81.0172 173.107L110.546 167.875C110.648 167.861 110.752 167.887 110.836 167.949C110.92 168.01 110.976 168.102 110.994 168.204C111.012 168.307 110.989 168.412 110.932 168.499C110.874 168.585 110.785 168.645 110.683 168.667C80.3663 174 80.817 174 80.6918 174Z" fill="#F3387E"/>
<path d="M216.353 213.534C215.595 210.635 211.727 187.772 182.08 19.0193C181.343 14.8434 178.988 11.1317 175.53 8.69825C172.073 6.26477 167.796 5.30818 163.638 6.03827L58.9402 24.5914C54.7892 25.3233 51.097 27.6803 48.6744 31.1449C46.2518 34.6094 45.2969 38.8983 46.0193 43.0697L73.7016 200.84C73.7105 200.893 73.7091 200.947 73.6974 200.999C73.6857 201.051 73.664 201.1 73.6334 201.143C73.5716 201.231 73.4775 201.291 73.372 201.309C73.2665 201.327 73.158 201.303 73.0706 201.24C72.9831 201.178 72.9238 201.084 72.9057 200.978L45.2607 43.2821C44.8741 41.1095 44.9179 38.8816 45.3895 36.7261C45.8612 34.5705 46.7516 32.5297 48.0096 30.7204C49.2676 28.911 50.8685 27.3688 52.7207 26.1821C54.5729 24.9953 56.6399 24.1873 58.8034 23.8043L163.501 5.25117C167.869 4.48457 172.361 5.48885 175.992 8.04389C179.624 10.5989 182.1 14.4963 182.876 18.8818C211.74 183.349 216.615 209.561 216.988 213.384C217.1 214.546 216.416 213.746 216.353 213.534Z" fill="#F3387E"/>
<path d="M213.5 68C212.214 68 210.958 67.6188 209.889 66.9045C208.82 66.1903 207.987 65.1752 207.495 63.9874C207.003 62.7997 206.874 61.4928 207.125 60.2319C207.376 58.971 207.995 57.8129 208.904 56.9038C209.813 55.9948 210.971 55.3757 212.232 55.1249C213.493 54.8741 214.8 55.0028 215.987 55.4948C217.175 55.9868 218.19 56.8199 218.905 57.8888C219.619 58.9577 220 60.2144 220 61.5C219.997 63.2229 219.311 64.8742 218.093 66.0925C216.874 67.3108 215.223 67.9967 213.5 68ZM213.5 55.8078C212.374 55.8078 211.274 56.1416 210.338 56.7671C209.401 57.3926 208.672 58.2816 208.241 59.3217C207.81 60.3618 207.698 61.5063 207.917 62.6105C208.137 63.7147 208.679 64.7289 209.475 65.525C210.271 66.3211 211.285 66.8632 212.39 67.0829C213.494 67.3025 214.638 67.1898 215.678 66.7589C216.718 66.3281 217.607 65.5985 218.233 64.6624C218.858 63.7264 219.192 62.6258 219.192 61.5C219.172 60.0023 218.564 58.5725 217.499 57.5194C216.434 56.4662 214.998 55.8741 213.5 55.8709V55.8078Z" fill="#F3387E"/>
<path d="M231.5 80C230.214 80 228.958 79.6188 227.889 78.9045C226.82 78.1903 225.987 77.1752 225.495 75.9874C225.003 74.7997 224.874 73.4928 225.125 72.2319C225.376 70.971 225.995 69.8128 226.904 68.9038C227.813 67.9948 228.971 67.3757 230.232 67.1249C231.493 66.8741 232.8 67.0028 233.987 67.4948C235.175 67.9868 236.19 68.8199 236.905 69.8888C237.619 70.9577 238 72.2144 238 73.5C237.997 75.2229 237.311 76.8742 236.093 78.0925C234.874 79.3108 233.223 79.9967 231.5 80ZM231.5 67.8078C230.374 67.8078 229.274 68.1416 228.338 68.7671C227.401 69.3926 226.672 70.2816 226.241 71.3217C225.81 72.3618 225.698 73.5063 225.917 74.6105C226.137 75.7147 226.679 76.7289 227.475 77.525C228.271 78.3211 229.285 78.8632 230.39 79.0829C231.494 79.3025 232.638 79.1898 233.678 78.7589C234.718 78.3281 235.607 77.5985 236.233 76.6624C236.858 75.7264 237.192 74.6258 237.192 73.5C237.192 72.7525 237.045 72.0123 236.759 71.3217C236.473 70.6311 236.054 70.0036 235.525 69.475C234.996 68.9464 234.369 68.5271 233.678 68.2411C232.988 67.955 232.248 67.8078 231.5 67.8078Z" fill="#F3387E"/>
<path d="M211.389 83.9754C211.318 83.9743 211.248 83.9537 211.188 83.9156C211.127 83.8776 211.077 83.8235 211.045 83.7592C211.012 83.6949 210.996 83.6227 211.001 83.5504C211.005 83.478 211.028 83.4082 211.068 83.3482L233.278 51.176C233.337 51.0879 233.428 51.0271 233.531 51.0071C233.634 50.9871 233.74 51.0096 233.827 51.0694C233.914 51.1293 233.973 51.2217 233.993 51.3264C234.013 51.4311 233.991 51.5394 233.932 51.6276C210.155 86.07 211.661 83.9754 211.389 83.9754Z" fill="#F3387E"/>
<path d="M230.275 26.7689C229.809 26.4267 228.611 25.5887 225.424 23.3463C225.082 23.135 224.785 22.8555 224.552 22.5247C224.32 22.1939 224.155 21.8187 224.069 21.4217C223.983 21.0247 223.977 20.6141 224.052 20.2147C224.127 19.8154 224.28 19.4355 224.504 19.098C224.727 18.7605 225.015 18.4724 225.351 18.2511C225.687 18.0298 226.064 17.8799 226.459 17.8104C226.854 17.7409 227.258 17.7532 227.648 17.8466C228.038 17.9401 228.405 18.1127 228.728 18.3541L229.274 18.7435L229.6 18.2833C229.824 17.9593 230.108 17.6833 230.437 17.4709C230.766 17.2586 231.133 17.114 231.517 17.0455C231.901 16.977 232.295 16.9859 232.675 17.0717C233.056 17.1575 233.416 17.3186 233.735 17.5456C234.054 17.7727 234.327 18.0613 234.536 18.3951C234.745 18.7288 234.888 19.1011 234.955 19.4907C235.023 19.8803 235.014 20.2796 234.929 20.6657C234.845 21.0519 234.686 21.4173 234.462 21.7413C232.136 25.1049 231.368 26.3205 230.973 26.7453C230.577 27.1702 230.624 26.9814 230.275 26.7689ZM227.076 18.6019C226.602 18.6052 226.141 18.7622 225.762 19.0499C225.382 19.3375 225.103 19.7409 224.965 20.2009C224.827 20.661 224.838 21.1537 224.996 21.6071C225.154 22.0604 225.451 22.4507 225.843 22.7208L230.565 26.0726L233.846 21.3518C234.145 20.8614 234.247 20.2734 234.132 19.7087C234.017 19.1441 233.692 18.6457 233.226 18.3161C232.76 17.9866 232.187 17.8509 231.625 17.937C231.063 18.0231 230.555 18.3244 230.205 18.7789L229.658 19.5461C229.6 19.6246 229.514 19.6772 229.419 19.6926C229.323 19.708 229.225 19.6851 229.146 19.6287C228.596 19.0454 227.865 18.6706 227.076 18.5665V18.6019Z" fill="#F3387E"/>
<path d="M95.2315 177.75C94.3514 177.118 93.2649 176.872 92.2091 177.064C91.1533 177.255 90.214 177.87 89.5962 178.774L89.0625 179.555C88.5731 179.07 87.9849 178.703 87.3408 178.481C86.6966 178.26 86.0127 178.189 85.3388 178.275C84.5513 178.419 83.8229 178.801 83.2456 179.372C82.6683 179.943 82.2681 180.678 82.0954 181.483C81.9227 182.289 81.9854 183.129 82.2755 183.898C82.5656 184.667 83.07 185.33 83.7252 185.803L90.7754 190.924C90.8184 190.956 90.8671 190.978 90.9187 190.99C90.9702 191.002 91.0235 191.003 91.0755 190.994C91.1276 190.984 91.1772 190.964 91.2216 190.934C91.266 190.905 91.3042 190.866 91.334 190.821L96.2989 183.537C96.5978 183.085 96.8073 182.576 96.9154 182.041C97.0235 181.505 97.0281 180.952 96.9289 180.415C96.8298 179.877 96.6288 179.365 96.3375 178.908C96.0462 178.451 95.6704 178.057 95.2315 177.75Z" fill="#F3387E"/>
<path d="M102.061 181.734C101.813 179.952 102.326 178.149 103.49 176.722C104.653 175.295 106.371 174.36 108.268 174.121C114.186 173.151 118.563 178.173 116.434 182.717L117.949 185.111C117.987 185.178 118.005 185.254 117.999 185.33C117.993 185.406 117.965 185.479 117.917 185.54C117.869 185.602 117.804 185.65 117.729 185.678C117.654 185.706 117.572 185.714 117.492 185.7L114.565 185.099C110.201 188.77 103.015 186.842 102.061 181.734ZM109.705 174.797C103.355 174.797 100.284 181.783 105.289 185.086C106.632 185.929 108.237 186.321 109.847 186.201C111.456 186.081 112.976 185.454 114.16 184.423C114.395 184.215 114.565 184.325 116.773 184.767C115.624 182.962 115.467 182.888 115.624 182.618C117.466 178.922 114.408 174.797 109.705 174.797Z" fill="#F3387E"/>
<path d="M185.153 174.66L183.008 162.574C182.997 162.521 182.997 162.468 183.008 162.416C183.018 162.363 183.039 162.314 183.07 162.27C183.1 162.226 183.139 162.189 183.184 162.16C183.229 162.131 183.28 162.112 183.332 162.103C196.374 159.824 195.489 159.923 195.689 160.06C195.888 160.196 195.689 159.255 197.995 172.443C198.007 172.517 197.997 172.592 197.968 172.66C197.939 172.728 197.891 172.786 197.83 172.829C197.769 172.872 197.698 172.896 197.623 172.9C197.549 172.904 197.475 172.888 197.409 172.852L190.788 169.137C187.509 172.939 186.375 174.289 185.926 174.759C185.477 175.23 185.19 174.908 185.153 174.66ZM183.906 162.821L185.839 173.694L190.439 168.357C190.498 168.285 190.581 168.237 190.672 168.221C190.764 168.205 190.858 168.223 190.938 168.27L197.11 171.725L195.177 160.84L183.906 162.821Z" fill="#F3387E"/>
<path d="M64 52C67.3137 52 70 49.3137 70 46C70 42.6863 67.3137 40 64 40C60.6863 40 58 42.6863 58 46C58 49.3137 60.6863 52 64 52Z" fill="#F3387E"/>
<path d="M73.423 44.9981C73.3208 45.0087 73.219 44.9741 73.14 44.9019C73.061 44.8297 73.0113 44.7259 73.0017 44.6133C72.9921 44.5007 73.0235 44.3885 73.089 44.3014C73.1544 44.2143 73.2486 44.1594 73.3507 44.1489L89.5632 41.0038C89.6619 40.9891 89.7619 41.0171 89.8423 41.0819C89.9227 41.1468 89.9771 41.2434 89.9943 41.3516C90.0114 41.4598 89.9898 41.5711 89.9342 41.6621C89.8785 41.7531 89.7929 41.8168 89.6956 41.8399C73.4952 44.9981 73.5433 44.9981 73.423 44.9981Z" fill="#F3387E"/>
<path d="M40.1517 116.231C40.5193 116.134 40.2911 116.728 42.9915 104.247C43.005 104.184 43.0024 104.12 42.9838 104.059C42.9652 103.998 42.9313 103.942 42.885 103.897C42.8387 103.851 42.7814 103.817 42.7182 103.798C42.655 103.779 42.5878 103.774 42.5224 103.786L11.3349 109.05L7.32866 101.214C7.28866 101.138 7.22352 101.076 7.14331 101.039C7.06311 101.002 6.9723 100.991 6.88493 101.008L0.330468 102.112C0.224553 102.131 0.13099 102.19 0.0703621 102.275C0.0097342 102.36 -0.0129927 102.465 0.00718159 102.567C0.0273559 102.668 0.0887786 102.757 0.177937 102.815C0.267096 102.873 0.376687 102.895 0.482602 102.876L6.74547 101.821L19.1191 126.007C18.6187 126.321 18.2134 126.755 17.9436 127.265C17.6739 127.776 17.5492 128.346 17.5822 128.917C17.6152 129.488 17.8047 130.041 18.1316 130.521C18.4585 131 18.9113 131.388 19.4447 131.647C19.9781 131.906 20.5732 132.026 21.1704 131.995C21.7677 131.965 22.3459 131.784 22.8472 131.472C23.3485 131.16 23.7553 130.727 24.0266 130.217C24.2979 129.707 24.4243 129.138 24.3931 128.567L35.6891 126.662C35.9393 127.459 36.4981 128.134 37.2511 128.55C38.0042 128.965 38.8947 129.09 39.7406 128.898C40.5866 128.707 41.3241 128.213 41.8025 127.519C42.2809 126.824 42.4641 125.981 42.3146 125.162C42.165 124.342 41.6941 123.609 40.998 123.11C40.302 122.612 39.4333 122.387 38.5695 122.481C37.7058 122.575 36.9122 122.981 36.3508 123.616C35.7895 124.251 35.5029 125.068 35.5496 125.898L24.2409 127.803C24.1092 127.381 23.8893 126.989 23.5944 126.651C23.2996 126.313 22.9361 126.035 22.5259 125.836C22.1157 125.636 21.6674 125.518 21.2082 125.489C20.7489 125.46 20.2884 125.521 19.8544 125.668L18.1556 122.259L40.1517 116.231ZM38.8839 123.23C39.3854 123.23 39.8756 123.372 40.2926 123.638C40.7096 123.905 41.0345 124.284 41.2265 124.727C41.4184 125.171 41.4686 125.658 41.3707 126.129C41.2729 126.599 41.0314 127.032 40.6768 127.371C40.3222 127.71 39.8704 127.941 39.3786 128.035C38.8867 128.129 38.3769 128.081 37.9136 127.897C37.4503 127.713 37.0543 127.402 36.7756 127.003C36.497 126.604 36.3483 126.135 36.3483 125.656C36.3649 125.007 36.646 124.39 37.1316 123.936C37.6172 123.483 38.2688 123.229 38.9473 123.23H38.8839ZM23.5056 128.749C23.5011 129.195 23.3711 129.632 23.1295 130.013C22.8878 130.395 22.5433 130.707 22.132 130.917C21.7208 131.128 21.258 131.228 20.7922 131.209C20.3263 131.189 19.8746 131.05 19.4843 130.805C19.094 130.561 18.7796 130.221 18.574 129.821C18.3685 129.42 18.2793 128.974 18.3158 128.529C18.3524 128.085 18.5133 127.658 18.7818 127.293C19.0503 126.928 19.4164 126.639 19.8417 126.456C20.2427 126.278 20.6842 126.2 21.1251 126.23C21.566 126.259 21.9921 126.394 22.3639 126.622C22.7356 126.851 23.041 127.166 23.2517 127.538C23.4624 127.909 23.5715 128.326 23.569 128.749H23.5056ZM42.0787 104.623L39.708 115.539L17.7372 121.604L11.7025 109.838L42.0787 104.623Z" fill="#F3387E"/>
<path d="M30.5285 57.2007L23.8167 58.5026L22.5986 51.3293C22.5775 51.224 22.519 51.1315 22.4354 51.0712C22.3519 51.011 22.2497 50.9877 22.1504 51.0062C22.0511 51.0247 21.9624 51.0837 21.9029 51.1706C21.8434 51.2575 21.8177 51.3657 21.8312 51.4725L23.0493 58.6458L16.3375 59.9477C16.2855 59.9552 16.2355 59.9739 16.1904 60.0025C16.1454 60.0312 16.1062 60.0693 16.0752 60.1145C16.0442 60.1597 16.0221 60.2112 16.0102 60.2658C15.9983 60.3204 15.9968 60.377 16.0058 60.4322C16.0148 60.4874 16.0342 60.5401 16.0627 60.5871C16.0912 60.6341 16.1284 60.6745 16.1718 60.7059C16.2153 60.7372 16.2643 60.7589 16.3157 60.7695C16.3672 60.7802 16.4202 60.7796 16.4715 60.7679L23.1833 59.466L24.4014 66.6393C24.4084 66.6948 24.4259 66.7483 24.4527 66.7965C24.4795 66.8446 24.5152 66.8865 24.5575 66.9196C24.5998 66.9527 24.648 66.9763 24.699 66.9891C24.7501 67.0018 24.8031 67.0034 24.8547 66.9938C24.9064 66.9842 24.9557 66.9635 24.9997 66.933C25.0437 66.9025 25.0815 66.8628 25.1108 66.8163C25.1402 66.7699 25.1604 66.7176 25.1704 66.6625C25.1803 66.6075 25.1798 66.5509 25.1688 66.4961L23.9507 59.3228L30.6625 58.0209C30.7145 58.0134 30.7645 57.9947 30.8096 57.9661C30.8546 57.9374 30.8938 57.8993 30.9248 57.8541C30.9558 57.8088 30.9779 57.7574 30.9898 57.7028C31.0017 57.6482 31.0032 57.5916 30.9942 57.5364C30.9852 57.4812 30.9658 57.4285 30.9373 57.3815C30.9088 57.3344 30.8716 57.294 30.8282 57.2627C30.7847 57.2314 30.7357 57.2097 30.6843 57.1991C30.6328 57.1884 30.5798 57.189 30.5285 57.2007Z" fill="#F3387E"/>
<path d="M236.56 117.372L224.349 119.529L222.155 107.312C222.134 107.212 222.075 107.124 221.99 107.067C221.906 107.01 221.802 106.988 221.702 107.006C221.602 107.023 221.512 107.079 221.452 107.162C221.391 107.244 221.365 107.346 221.379 107.447L223.523 119.665L211.312 121.822C211.212 121.843 211.124 121.903 211.067 121.987C211.01 122.072 210.988 122.175 211.006 122.276C211.023 122.376 211.079 122.466 211.161 122.526C211.244 122.586 211.346 122.612 211.447 122.599L223.659 120.441L225.815 132.658C225.822 132.711 225.84 132.762 225.867 132.807C225.894 132.853 225.93 132.893 225.973 132.924C226.016 132.955 226.065 132.978 226.116 132.99C226.168 133.002 226.221 133.003 226.274 132.994C226.326 132.985 226.376 132.965 226.42 132.937C226.465 132.908 226.503 132.87 226.533 132.826C226.562 132.782 226.583 132.733 226.593 132.68C226.603 132.628 226.603 132.575 226.591 132.523L224.435 120.306L236.646 118.161C236.698 118.155 236.748 118.139 236.794 118.114C236.84 118.089 236.88 118.055 236.913 118.015C236.945 117.974 236.97 117.927 236.984 117.877C236.999 117.827 237.003 117.775 236.998 117.723C236.992 117.671 236.976 117.621 236.951 117.575C236.926 117.53 236.892 117.489 236.852 117.457C236.811 117.424 236.764 117.4 236.714 117.385C236.664 117.37 236.612 117.366 236.56 117.372Z" fill="#F3387E"/>
<path d="M162.961 56.1455C162.683 55.6194 162.459 55.0675 162.292 54.4979C162.261 54.3961 162.191 54.3101 162.096 54.259C162.002 54.2079 161.89 54.1958 161.786 54.2254C161.682 54.255 161.594 54.3238 161.542 54.4167C161.49 54.5096 161.478 54.619 161.508 54.7209C161.514 54.7537 161.514 54.7872 161.508 54.82C157.488 57.025 155.125 54.82 158.399 52.9742C156.439 53.3459 154.897 51.7355 157.716 50.0136C157.488 50.0036 157.262 49.9619 157.046 49.8897C156.452 50.4719 155.352 50.026 154.316 46C154.903 47.8594 154.791 49.8634 154 51.6488C154.156 54.1864 154.941 56.6485 156.288 58.8212C156.331 58.8854 156.392 58.936 156.464 58.9668C156.536 58.9976 156.615 59.0072 156.692 58.9946C158.842 58.5222 160.906 57.7283 162.81 56.641C162.893 56.5918 162.955 56.5137 162.983 56.422C163.012 56.3304 163.004 56.2317 162.961 56.1455Z" fill="#F3387E"/>
<path d="M177.039 52.3197C180.394 53.5655 180.72 45.1062 180.632 41.5306C185.029 38.0546 184.401 33.2083 179.313 30.9034C178.195 25.92 176.197 20.7248 173.898 21.0113C173.069 21.111 173.672 20.6999 162.328 32.9466L148.232 34.6534C147.298 34.766 146.409 35.1148 145.65 35.6664C144.891 36.2179 144.287 36.9536 143.898 37.8029C143.508 38.6523 143.345 39.5867 143.424 40.5165C143.503 41.4464 143.822 42.3404 144.35 43.1128L137.327 44.3587C137.223 44.3785 137.13 44.4388 137.07 44.5265C137.01 44.6141 136.987 44.7218 137.007 44.8259C137.027 44.9299 137.088 45.0219 137.176 45.0815C137.265 45.141 137.373 45.1634 137.478 45.1435L144.916 43.8977C145.425 44.4236 146.044 44.8323 146.73 45.095C147.416 45.3576 148.152 45.4677 148.885 45.4176C148.99 45.4144 149.089 45.371 149.162 45.2966C149.234 45.2221 149.275 45.1226 149.275 45.019C149.275 44.7947 149.061 44.5829 148.86 44.6203C143.019 44.7573 142.579 36.1983 148.32 35.5131H148.659C147.778 38.4197 148.089 41.5541 149.526 44.2341C149.567 44.3038 149.627 44.3599 149.7 44.3948C149.773 44.4297 149.855 44.4419 149.936 44.4298C150.016 44.4177 150.09 44.3818 150.15 44.3269C150.209 44.2719 150.25 44.2005 150.267 44.1219C151.784 43.5531 153.383 43.2333 155.004 43.1751C156.386 43.0381 156.561 43.4367 156.775 44.1593C156.913 44.6452 156.863 44.7822 157.064 44.8695C157.106 44.8877 157.15 44.897 157.196 44.897C157.241 44.897 157.286 44.8877 157.328 44.8695C158.463 44.1793 159.766 43.8089 161.097 43.798C161.136 43.8672 161.195 43.9231 161.267 43.9586C161.339 43.9941 161.419 44.0076 161.499 43.9974L163.609 43.7357L176.084 51.9085L194.15 153.471L178.484 156.212C178.382 156.233 178.293 156.293 178.235 156.378C178.177 156.464 178.154 156.568 178.172 156.67C178.19 156.771 178.247 156.862 178.331 156.923C178.415 156.984 178.519 157.01 178.622 156.996C195.783 153.932 194.803 154.231 194.954 154.031C195.105 153.832 195.871 158.242 177.039 52.3197ZM182.73 35.8993C183.107 39.0139 179.941 41.0073 179.878 41.1319C177.961 42.4518 175.758 43.3054 173.446 43.6236C172.401 39.3309 171.857 34.9332 171.826 30.5172C177.454 30.1185 182.303 32.4607 182.73 35.8993ZM163.999 42.901C162.177 41.0821 161.549 35.8993 162.843 33.582L171.637 24.0388C169.526 31.9749 172.755 44.5206 172.705 44.1842C172.694 44.2208 172.694 44.2598 172.705 44.2964C173.22 46.2875 173.97 48.2113 174.941 50.0273L163.999 42.901Z" fill="#F3387E"/>
<path d="M103.592 109.999C101.196 109.766 98.7873 109.657 96.3772 109.674C96.2772 109.674 96.1812 109.638 96.1105 109.575C96.0397 109.512 96 109.427 96 109.338C96 109.249 96.0397 109.163 96.1105 109.1C96.1812 109.037 96.2772 109.002 96.3772 109.002C98.8069 108.984 101.236 109.093 103.651 109.327C103.751 109.334 103.844 109.376 103.909 109.444C103.974 109.512 104.007 109.6 103.999 109.689C103.991 109.778 103.944 109.861 103.868 109.919C103.791 109.977 103.692 110.006 103.592 109.999Z" fill="#120409"/>
<path d="M102.307 54.9732C110.012 51.9794 111.842 46.1773 113.386 40.1278C109.104 38.7546 110.971 34.5237 113.137 36.1567C115.303 37.7897 114.506 35.6 114.307 33.3485C117.06 32.585 119.891 32.1326 122.746 32C126.605 43.5918 126.282 51.4969 115.601 45.2742C116.199 46.7486 117.073 48.0964 118.178 49.2454C118.371 50.8573 118.978 52.393 119.939 53.7056C120.9 55.0181 122.184 56.0637 123.668 56.7423L124.912 57.4722C124.819 61.0531 124.194 64.6006 123.058 68C117.942 63.9546 108.12 57.8186 101 55.4804L102.307 54.9732Z" fill="#E6E7E8"/>
<path d="M175.862 176.364C175.922 176.337 175.974 176.296 176.013 176.243C176.052 176.191 176.078 176.13 176.087 176.065C177.333 168.832 180.522 140.385 180.946 131.247C181.307 123.117 180.46 118.199 159.504 105.327C161.996 103.248 162.507 97.8568 162.22 64.8032C162.22 63.1847 158.919 62.7739 157.088 62.6121C156.402 58.8772 156.726 59.2631 156.477 59.3005C156.228 59.3378 155.991 59.0141 155.804 58.7029C155.667 60.1595 156.764 64.9277 157.05 66.8698C152.947 67.6602 148.756 67.8864 144.592 67.5421C144.442 65.6373 144.068 62.3631 144.006 59.4499C143.882 54.1588 144.28 52.9512 145.576 50.5609C146.771 48.2853 148.231 46.1584 149.924 44.224C150.746 43.4895 153.101 43.2779 154.907 43.116C156.253 42.9791 156.352 43.365 156.539 43.9999C156.885 45.6362 157.027 47.3087 156.963 48.9798C156.963 49.5151 156.676 49.9633 156.477 49.9882C156.278 50.0131 155.393 49.2537 154.608 46.1537C154.584 46.0497 154.518 45.9598 154.427 45.9038C154.336 45.8477 154.227 45.8302 154.122 45.8549C154.018 45.8797 153.928 45.9448 153.872 46.0358C153.816 46.1269 153.799 46.2365 153.823 46.3405C154.658 50.1874 153.936 52.8142 151.606 54.3953C151.518 54.4548 151.458 54.5465 151.438 54.6504C151.418 54.7543 151.44 54.8619 151.5 54.9494C151.559 55.0368 151.651 55.0972 151.755 55.117C151.859 55.1368 151.967 55.1146 152.054 55.0552C152.962 54.4481 153.701 53.6222 154.204 52.6538C154.707 51.6854 154.958 50.6059 154.932 49.5151C155.356 50.2745 155.792 50.7601 156.265 50.7601C155.019 52.005 155.58 53.25 156.988 53.6235C155.593 54.968 156.427 56.4371 158.159 56.4371C159.492 56.3519 160.779 55.923 161.897 55.1921C162.18 55.0261 162.421 54.7966 162.6 54.5216C162.779 54.2467 162.892 53.9338 162.929 53.6078C162.967 53.2817 162.928 52.9515 162.816 52.6431C162.703 52.3347 162.521 52.0566 162.283 51.8307C162.505 51.6356 162.683 51.3953 162.805 51.1259C162.928 50.8564 162.991 50.5641 162.991 50.2683C162.991 49.9725 162.928 49.6802 162.805 49.4107C162.683 49.1413 162.505 48.901 162.283 48.7059C162.632 48.2836 162.806 47.7437 162.769 47.1972C162.732 46.6506 162.486 46.1391 162.083 45.7678C162.315 45.5094 162.464 45.1879 162.511 44.8445C162.559 44.501 162.503 44.1512 162.35 43.8398C162.198 43.5284 161.956 43.2695 161.655 43.0962C161.355 42.9229 161.009 42.8431 160.663 42.867C159.512 42.9426 158.389 43.2518 157.362 43.7758C157.05 42.7301 156.552 42.1325 154.87 42.3068C152.827 42.4935 150.522 42.7052 149.513 43.614C147.743 45.611 146.22 47.8139 144.978 50.1749C143.483 52.9387 142.86 55.0178 143.545 63.5084C141.614 63.9442 139.546 64.8779 139.646 66.1851C139.646 66.2598 139.646 66.0731 140.368 70.4304C136.988 65.8274 132.734 61.9353 127.847 58.9768C128.476 58.6458 129.001 58.1496 129.368 57.5419C129.735 56.9342 129.928 56.2379 129.928 55.5283C130.711 55.8817 131.576 56.0097 132.428 55.8978C133.279 55.7859 134.082 55.4386 134.747 54.895C135.411 54.3513 135.91 53.6331 136.188 52.8211C136.466 52.0091 136.511 51.1358 136.319 50.2994C139.97 49.8886 140.842 45.8674 138.948 43.365C139.548 43.2041 140.088 42.8737 140.505 42.4134C140.921 41.953 141.196 41.3823 141.296 40.7698C141.396 40.1573 141.317 39.5289 141.069 38.9602C140.82 38.3915 140.412 37.9065 139.895 37.5635C140.453 37.3225 140.941 36.9425 141.311 36.4599C141.681 35.9773 141.921 35.4081 142.008 34.8066C142.095 34.205 142.027 33.591 141.81 33.0232C141.593 32.4554 141.234 31.9527 140.767 31.5628C143.919 29.8697 142.885 25.6991 140.169 24.0931C142.449 22.263 141.664 17.9803 138.437 17.5446C138.838 16.8952 139.044 16.1445 139.03 15.3816C139.017 14.6187 138.784 13.8758 138.36 13.2412C137.937 12.6065 137.339 12.1068 136.64 11.8015C135.94 11.4962 135.167 11.3982 134.413 11.519C134.687 8.2074 132.32 6.04117 128.769 7.26123C128.712 6.48973 128.449 5.74767 128.007 5.11257C127.565 4.47747 126.961 3.97263 126.257 3.65079C125.553 3.32895 124.775 3.20191 124.005 3.28295C123.235 3.36399 122.501 3.65013 121.88 4.11149C120.634 0.638053 116.697 -0.51976 113.508 2.60509C112.137 -0.743852 106.718 -0.943046 105.484 2.46814C102.731 -0.121374 97.7602 1.37258 97.3117 4.80866C93.7859 2.14445 89.4005 5.48094 89.2012 9.40256C85.6007 8.0331 82.3117 12.5772 83.4454 16.1129C79.0974 17.0342 77.9263 21.3044 80.5799 24.2425C76.7676 25.9481 76.9794 29.9817 79.7203 32.2351C76.7303 34.725 77.5027 39.045 81.153 40.0534C80.6688 40.8231 80.3948 41.706 80.3583 42.6144C80.3219 43.5228 80.5241 44.4248 80.945 45.2308C81.3659 46.0367 81.9908 46.7184 82.7573 47.208C83.5239 47.6976 84.4054 47.9779 85.3142 48.0212C83.7195 51.644 86.56 55.2419 90.2103 54.2459C90.0549 55.0483 90.1252 55.878 90.4133 56.6428C90.7014 57.4076 91.1961 58.0776 91.8424 58.5784C84.0558 61.4418 76.207 64.4795 70.0276 68.4634C61.0699 74.2524 57.3324 81.2491 64.0101 89.553C69.1804 95.9645 72.9678 100.758 80.7917 108.974C81.9005 110.468 84.0558 110.219 85.8499 109.647C86.7274 110.307 87.671 110.874 88.6655 111.34C88.52 112.389 88.6516 113.458 89.0471 114.441C89.4427 115.423 90.0885 116.286 90.9205 116.942C91.317 117.32 91.8209 117.566 92.363 117.646C92.9051 117.726 93.4587 117.637 93.9479 117.39C94.4113 117.749 94.965 117.972 95.5477 118.036C96.1304 118.1 96.7193 118.001 97.2494 117.751C98.9313 118.66 100.227 118.673 101.498 117.154C101.498 119.469 101.498 129.74 103.728 129.74C104.214 129.74 104.625 129.267 104.812 128.495C105.173 130.201 105.609 131.981 106.132 133.824C99.766 130.226 82.3366 119.382 81.913 119.594C81.4894 119.805 80.6671 120.328 80.0567 120.702C77.9761 119.009 75.9703 116.73 75.4221 116.88C66.7385 119.357 48.599 132.641 45.0483 139.152C45.0174 139.209 45.0008 139.272 45 139.337C44.9992 139.402 45.0142 139.466 45.0436 139.523C45.0731 139.581 45.1161 139.631 45.169 139.668C45.2219 139.705 45.2831 139.729 45.3473 139.737C55.9869 141.206 63.2502 137.322 70.0899 136.251C69.8989 137.487 69.8156 138.736 69.8407 139.986C69.8215 140.06 69.823 140.137 69.845 140.209C69.867 140.282 69.9086 140.347 69.9653 140.397C73.1422 142.887 98.8316 161.561 109.695 168.508C122.839 176.986 132.644 172.704 134.077 160.067C134.612 155.349 135.622 142.75 136.481 131.732C136.481 131.732 152.316 135.853 155.892 136.712C155.431 141.156 152.814 163.678 152.814 163.703C151.805 172.417 151.805 171.882 152.029 172.069C152.69 172.612 153.385 173.111 154.11 173.563C152.69 177.721 149.413 181.157 149.762 181.879C153.562 189.847 168.512 202.969 176.735 207.948C176.797 207.983 176.868 208.001 176.94 208C177.011 207.999 177.082 207.979 177.143 207.943C177.205 207.906 177.256 207.854 177.292 207.792C177.327 207.73 177.345 207.659 177.345 207.587C176.822 193.607 168.151 186.485 168.699 177.609C171.148 177.699 173.588 177.275 175.862 176.364ZM161.398 54.4949C160.525 55.0558 159.545 55.4289 158.52 55.5905C157.76 55.715 157.274 55.4411 157.1 55.1299C156.926 54.8186 157.25 54.2459 158.346 53.5986C159.51 53.39 160.625 52.9679 161.635 52.3536C161.811 52.4831 161.949 52.6564 162.037 52.8563C162.124 53.0562 162.158 53.2756 162.134 53.4924C162.11 53.7093 162.029 53.9161 161.9 54.092C161.771 54.268 161.598 54.4069 161.398 54.4949ZM161.037 48.7183C159.998 49.3887 158.797 49.7671 157.561 49.8139C157.772 49.0399 157.831 48.2325 157.735 47.436C159.037 47.2741 160.301 46.891 161.473 46.3031C162.158 46.826 162.158 48.0585 161.037 48.7681V48.7183ZM160.626 43.6389C161.959 43.6389 161.872 45.2573 160.626 45.7927C159.685 46.206 158.691 46.4867 157.673 46.6268C157.639 45.9376 157.56 45.2514 157.436 44.5726C158.419 44.0407 159.509 43.7385 160.626 43.6887V43.6389ZM157.686 50.6107C159.101 50.5375 160.469 50.0719 161.635 49.2661C161.768 49.3369 161.882 49.4402 161.964 49.5664C162.047 49.6927 162.097 49.8377 162.108 49.9882C162.283 51.1709 160.975 51.8183 159.866 52.2914C158.495 52.864 156.801 53.25 156.44 52.2914C156.303 52.005 156.552 51.395 157.686 50.6605V50.6107ZM161.423 65.9485C161.423 68.3887 161.423 70.6794 161.423 72.8207C158.508 76.3191 147.382 76.9042 141.689 74.6757C141.303 72.3227 140.842 69.422 140.443 67.4176C143.807 69.1356 157.673 68.9365 161.473 65.9984L161.423 65.9485ZM113.645 40.3771C113.669 40.2798 113.655 40.1771 113.607 40.0895C113.558 40.0018 113.478 39.9356 113.383 39.904C109.745 38.7338 111.078 35.3101 112.76 36.5924C113.308 37.0157 113.931 37.4017 114.417 37.1278C115.127 36.7169 114.778 35.4222 114.604 33.7539C117.122 33.0297 119.713 32.5871 122.328 32.4343C125.979 43.6389 125.854 50.9344 115.663 45.0457C115.592 45.0044 115.51 44.9861 115.428 44.9934C115.346 45.0006 115.268 45.0331 115.205 45.0863C115.142 45.1395 115.097 45.2109 115.077 45.2905C115.056 45.3702 115.061 45.4543 115.09 45.5312C115.693 47.0307 116.567 48.4065 117.669 49.5898C118.242 53.8725 120.559 55.8146 124.372 57.9435C124.264 61.2427 123.715 64.5127 122.739 67.6666C116.399 62.7757 109.425 58.7638 102.009 55.7399C109.446 52.8018 111.689 48.0585 113.645 40.3771ZM75.1106 101.803C70.8498 97.0227 68.1962 93.6613 64.5334 89.1172C59.4254 82.7679 59.6995 76.0825 70.3515 69.1979C78.898 63.6952 90.7585 59.9728 100.85 56.1258C107.715 58.4166 117.195 64.2554 122.677 68.5754C122.726 68.6151 122.783 68.6427 122.844 68.6561C122.906 68.6695 122.969 68.6683 123.03 68.6525C123.09 68.6367 123.147 68.6069 123.194 68.5653C123.241 68.5238 123.277 68.4718 123.3 68.4136C124.398 65.1624 125.023 61.7706 125.156 58.3419C131.33 61.6721 136.614 66.4321 140.568 72.2231C141.415 77.452 143.059 87.5859 143.645 90.4618C143.655 90.5133 143.676 90.5622 143.706 90.6057C143.735 90.6492 143.773 90.6865 143.817 90.7154C143.861 90.7443 143.91 90.7643 143.962 90.7741C144.014 90.784 144.067 90.7836 144.118 90.773C144.17 90.7624 144.219 90.7417 144.262 90.7122C144.306 90.6827 144.343 90.6449 144.372 90.6009C144.401 90.557 144.421 90.5078 144.431 90.4562C144.441 90.4045 144.44 90.3514 144.43 90.2999C143.931 88.0092 142.872 81.4483 141.938 75.5721C147.133 77.3897 157.561 77.3648 161.535 73.9412C161.635 99.3134 160.987 103.272 158.819 104.841C153.836 101.828 147.843 98.3797 140.505 94.3709C139.081 91.2056 137.833 87.9637 136.768 84.6603C135.671 69.8328 132.208 66.6208 128.844 63.496L128.47 63.1598C128.434 63.1173 128.39 63.0828 128.339 63.0586C128.289 63.0344 128.234 63.0211 128.178 63.0194C128.122 63.0178 128.067 63.0279 128.015 63.049C127.964 63.0702 127.917 63.102 127.878 63.1423C127.84 63.1826 127.81 63.2306 127.791 63.2831C127.772 63.3356 127.765 63.3915 127.769 63.4472C127.773 63.5028 127.789 63.557 127.815 63.6061C127.842 63.6553 127.878 63.6983 127.922 63.7325C131.448 67.0068 133.466 69.3099 134.899 76.3689C135.838 81.7128 136.313 87.1277 136.319 92.5533C132.955 98.0685 120.534 99.052 113.57 96.8982C110.219 92.989 105.634 87.9843 101.921 84.2121C103.222 82.0775 104.407 79.875 105.472 77.6138C105.502 77.5456 105.513 77.4703 105.502 77.3965C105.492 77.3227 105.461 77.2533 105.413 77.1962C105.365 77.1391 105.301 77.0967 105.23 77.0737C105.159 77.0506 105.083 77.048 105.011 77.066C100.8 78.2363 88.8897 81.8716 85.8623 82.9173C84.4919 81.3611 83.2834 80.029 82.3989 79.0953C82.3245 79.0194 82.223 78.9761 82.1167 78.9749C82.0104 78.9737 81.908 79.0148 81.832 79.0891C81.756 79.1634 81.7127 79.2648 81.7115 79.371C81.7103 79.4773 81.7514 79.5796 81.8258 79.6555C83.8814 81.8218 87.7934 86.3036 91.3067 90.412C84.2053 89.5654 75.7959 96.6741 75.1106 101.803ZM98.3208 97.334C94.8823 93.3003 90.4097 88.1088 86.4728 83.5647C88.3665 82.9298 92.702 81.5977 96.7635 80.3403C102.426 85.6521 107.784 91.2801 112.81 97.197C109.393 99.8975 106.778 103.479 105.248 107.555C104.7 106.821 104.226 106.547 98.4454 100.919C98.6767 100.679 98.8574 100.395 98.9767 100.083C99.096 99.772 99.1515 99.4398 99.1399 99.1066C99.1282 98.7733 99.0498 98.4458 98.9091 98.1434C98.7684 97.8411 98.5683 97.57 98.3208 97.3464V97.334ZM81.1779 104.505C80.6424 105.376 80.3221 106.362 80.2435 107.381C78.6489 105.721 77.1995 104.148 75.8955 102.662C75.6214 97.944 84.7909 89.7024 92.1912 91.3582L96.5019 96.338C95.6215 96.1503 94.7152 96.1166 93.8233 96.2384C93.7313 96.2017 93.6287 96.2017 93.5368 96.2384C91.0595 96.7024 88.6992 97.6533 86.5926 99.036C84.486 100.419 82.6752 102.206 81.2651 104.293C81.2208 104.357 81.191 104.429 81.1779 104.505ZM104.002 128.159C103.986 128.482 103.868 128.791 103.666 129.043C103.666 129.043 102.096 128.445 102.233 116.058C102.757 115.103 103.214 114.113 103.603 113.095C103.631 113 103.623 112.898 103.58 112.809C103.538 112.72 103.463 112.65 103.371 112.613C103.28 112.575 103.177 112.574 103.084 112.608C102.991 112.641 102.914 112.709 102.868 112.796C102.295 114.191 101.087 117.091 99.6913 117.565C99.3808 117.647 99.0566 117.664 98.7392 117.615C98.4218 117.566 98.1181 117.451 97.8474 117.278C98.9167 115.98 99.7591 114.511 100.339 112.933C100.38 112.836 100.381 112.726 100.342 112.628C100.302 112.53 100.225 112.452 100.127 112.41C100.03 112.369 99.9199 112.368 99.8218 112.408C99.7237 112.448 99.6454 112.525 99.604 112.622C98.3582 115.622 97.4114 116.979 96.4894 117.291C96.1601 117.359 95.8204 117.36 95.4906 117.294C95.1609 117.227 94.848 117.095 94.5708 116.905C95.5891 115.608 96.4273 114.18 97.0625 112.659C97.1038 112.564 97.1062 112.457 97.0693 112.36C97.0324 112.263 96.9591 112.184 96.8649 112.14C96.7708 112.096 96.6632 112.091 96.5652 112.125C96.4671 112.159 96.3863 112.23 96.3399 112.323C95.7544 113.568 94.3964 116.606 93.1879 116.942C92.727 117.079 92.1788 116.942 91.369 116.357C90.6989 115.802 90.1741 115.093 89.8398 114.291C89.5055 113.488 89.3719 112.616 89.4504 111.751C90.3118 112.097 91.2046 112.36 92.1165 112.535C92.1165 112.622 91.7801 113.357 91.7552 113.444C91.7338 113.493 91.7228 113.547 91.7229 113.601C91.7229 113.655 91.734 113.709 91.7554 113.759C91.7768 113.808 91.8082 113.853 91.8475 113.89C91.8869 113.927 91.9334 113.956 91.9843 113.975C92.0351 113.994 92.0893 114.002 92.1434 113.999C92.1974 113.996 92.2504 113.982 92.2989 113.958C92.3474 113.934 92.3905 113.9 92.4255 113.859C92.4606 113.817 92.4868 113.769 92.5027 113.718C92.6024 113.444 93.3374 111.726 93.4994 111.228C93.5324 111.127 93.5241 111.017 93.4762 110.923C93.4283 110.828 93.3448 110.756 93.244 110.723C93.1432 110.69 93.0334 110.699 92.9388 110.747C92.8442 110.795 92.7725 110.878 92.7394 110.979C92.7394 111.128 92.565 111.439 92.428 111.788C90.3174 111.335 88.3186 110.465 86.5493 109.23C84.7799 107.994 83.2756 106.417 82.1248 104.592C84.8669 100.707 89.0044 98.0314 93.6738 97.1223C95.2187 98.7906 97.6481 101.168 97.7353 101.243C104.214 107.568 104.438 107.468 105.061 108.563C105.682 109.704 105.93 111.01 105.771 112.298C105.534 114.477 104.214 126.429 103.977 128.134L104.002 128.159ZM97.511 129.89C99.7037 132.081 103.977 136.451 108.549 141.542C108.811 142.24 109.073 142.937 109.347 143.646C109.385 143.745 109.46 143.825 109.557 143.869C109.654 143.912 109.764 143.915 109.864 143.877C109.963 143.839 110.043 143.763 110.086 143.666C110.129 143.569 110.132 143.459 110.094 143.36C107.864 137.775 106.195 131.982 105.111 126.068C105.572 122.021 106.431 114.116 106.543 112.373C106.673 111.008 106.436 109.633 105.858 108.389C107.327 104.144 109.997 100.416 113.545 97.6576C114.398 97.9088 115.263 98.1166 116.136 98.2801C107.503 111.825 110.58 132.554 114.641 152.784C108.225 148.701 82.9097 133.052 80.7917 131.62C82.6919 128.52 85.5146 126.091 88.8648 124.673L97.511 129.89ZM81.8756 120.64L87.918 124.213C81.1406 127.101 76.0326 136.363 75.746 143.671C73.1796 141.804 71.3233 140.422 70.5882 139.862C70.5486 135.936 71.5751 132.073 73.5583 128.683C75.5416 125.294 78.4074 122.506 81.8507 120.615L81.8756 120.64ZM156.726 136.426C156.732 136.33 156.704 136.235 156.647 136.158C156.59 136.08 156.508 136.025 156.415 136.002L154.446 135.517C148.176 131.953 142.379 127.616 137.191 122.607C137.503 118.648 137.752 115.473 137.889 113.892C137.899 113.786 137.866 113.681 137.799 113.599C137.731 113.518 137.633 113.466 137.528 113.456C137.422 113.446 137.317 113.479 137.235 113.546C137.153 113.614 137.102 113.712 137.092 113.817C136.88 116.307 133.902 154.49 133.279 160.005C132.034 171.546 123.238 176.314 110.131 167.861C101.734 162.445 85.501 150.817 76.5558 144.294C76.7279 140.066 78.0175 135.96 80.2934 132.392C84.4919 135.243 101.66 145.601 114.94 154.067C115.006 154.11 115.083 154.133 115.162 154.133C115.241 154.132 115.317 154.109 115.383 154.065C115.448 154.021 115.499 153.958 115.529 153.886C115.559 153.813 115.566 153.733 115.551 153.656C111.402 133.151 108.076 112.024 116.934 98.5291C123.163 99.4504 133.379 98.442 136.793 93.3874C177.233 115.261 180.671 120.777 180.186 131.296C179.874 138.218 177.968 156.295 176.523 167.724C169.907 170.214 157.91 167.998 153.637 163.491C154.272 157.739 156.49 138.629 156.701 136.401L156.726 136.426ZM152.69 171.521C152.877 169.878 153.163 167.35 153.512 164.387C158.271 168.782 169.583 170.849 176.398 168.521C176.012 171.583 175.651 174.098 175.377 175.692C170.132 177.995 158.844 176.501 152.69 171.521Z" fill="#120409"/>
</svg>
