<svg width="277" height="212" viewBox="0 0 277 212" fill="none" xmlns="http://www.w3.org/2000/svg">
<path d="M199.434 187.93C208.227 197.519 222.368 202.199 229.59 211.074C219.874 210.889 199.838 207.55 190.786 203.94C188.796 200.273 189.834 198.518 184.227 190.784C189.367 190.251 194.454 189.296 199.434 187.93Z" fill="#E6E7E8"/>
<path d="M62.0253 161.378C47.7691 162.83 47.3699 177.53 33.3275 184.227C35.3662 174.175 39.3294 158.719 45.0319 146.271C50.9313 147.45 56.9438 147.937 62.952 147.723C61.9669 152.201 61.6545 156.804 62.0253 161.378Z" fill="#E6E7E8"/>
<path d="M146.271 85.3647C145.928 82.794 145.379 80.2529 144.627 77.7642C141.477 79.5965 137.911 80.6626 134.236 80.8703C135.094 83.2063 135.73 85.6121 136.137 88.0585L142.44 90.7249L146.271 85.3647Z" fill="#E6E7E8"/>
<path d="M156.101 165.723L94.9367 193.78C93.5955 194.397 92.1458 194.743 90.6708 194.799C89.1958 194.854 87.7244 194.617 86.3409 194.102C84.9574 193.587 83.689 192.804 82.6083 191.797C81.5277 190.79 80.656 189.58 80.0433 188.235L73.6666 174.279C73.636 174.212 73.5799 174.16 73.5107 174.134C73.4416 174.108 73.365 174.111 73.2979 174.142C73.2308 174.173 73.1786 174.229 73.1529 174.298C73.1271 174.367 73.1299 174.444 73.1606 174.511L79.5517 188.467C80.1968 189.874 81.1125 191.141 82.2466 192.193C83.3807 193.246 84.7109 194.065 86.1612 194.603C87.6115 195.141 89.1535 195.387 90.6989 195.328C92.2444 195.269 93.763 194.905 95.1681 194.258C95.3126 194.186 96.7008 193.418 156.332 166.216C156.387 166.179 156.427 166.124 156.444 166.061C156.462 165.997 156.456 165.929 156.428 165.87C156.4 165.81 156.352 165.763 156.292 165.736C156.231 165.709 156.164 165.705 156.101 165.723Z" fill="#F3387E"/>
<path d="M243.331 112.835L206.129 31.673C206.117 31.635 206.098 31.5998 206.072 31.57C206.045 31.5401 206.013 31.5163 205.977 31.5001C205.94 31.4839 205.901 31.4757 205.861 31.4761C205.822 31.4765 205.782 31.4854 205.746 31.5023C205.71 31.5192 205.679 31.5437 205.653 31.5741C205.627 31.6044 205.608 31.6399 205.598 31.6782C205.587 31.7165 205.585 31.7566 205.591 31.7958C205.598 31.835 205.612 31.8724 205.634 31.9054L242.837 113.009C244.08 115.731 244.192 118.834 243.148 121.639C242.105 124.443 239.99 126.72 237.269 127.969L184.38 152.224C184.325 152.252 184.281 152.297 184.254 152.353C184.227 152.408 184.22 152.471 184.234 152.531C184.247 152.591 184.28 152.645 184.328 152.684C184.375 152.724 184.435 152.746 184.496 152.747C184.642 152.747 182.592 153.648 237.501 128.521C240.353 127.209 242.567 124.821 243.66 121.881C244.753 118.941 244.634 115.688 243.331 112.835Z" fill="#F3387E"/>
<path d="M194.205 17.0384C191.573 16.3552 188.791 16.6112 186.322 17.7635L146.445 36.3349L146.271 37.0304L186.54 18.2666C188.895 17.1671 191.55 16.9267 194.059 17.5859C194.094 17.5956 194.131 17.5982 194.168 17.5934C194.204 17.5886 194.239 17.5766 194.271 17.5581C194.302 17.5395 194.33 17.5148 194.353 17.4853C194.375 17.4558 194.391 17.4221 194.401 17.3862C194.41 17.3502 194.413 17.3127 194.408 17.2758C194.403 17.2388 194.392 17.2032 194.373 17.1709C194.355 17.1386 194.331 17.1103 194.302 17.0876C194.273 17.0648 194.24 17.0481 194.205 17.0384Z" fill="#F3387E"/>
<path d="M88.4664 62.9521L58.543 76.305C58.5028 76.3132 58.4648 76.3301 58.4321 76.3544C58.3993 76.3788 58.3726 76.4099 58.3537 76.4457C58.3349 76.4814 58.3245 76.5208 58.3233 76.561C58.322 76.6011 58.33 76.6411 58.3466 76.6778C58.3633 76.7146 58.3881 76.7473 58.4193 76.7735C58.4505 76.7997 58.4873 76.8187 58.527 76.8292C58.5668 76.8397 58.6084 76.8414 58.6489 76.8342C58.6894 76.827 58.7277 76.811 58.761 76.7875L88.8734 63.3211L88.4664 62.9521Z" fill="#F3387E"/>
<path d="M61.0947 147.788L38.5861 98.4176C37.3454 95.6777 37.2355 92.5555 38.2806 89.7345C39.3256 86.9134 41.4405 84.6232 44.1623 83.3652L47.0741 82.0048C47.1417 81.9737 47.1942 81.917 47.2202 81.847C47.2461 81.7771 47.2433 81.6996 47.2124 81.6317C47.1816 81.5638 47.1251 81.5111 47.0555 81.485C46.9858 81.4589 46.9088 81.4617 46.8412 81.4928L43.9293 82.8532C41.0763 84.1772 38.8616 86.583 37.7701 89.544C36.6787 92.505 36.7993 95.7798 38.1057 98.6516L60.5996 148.007C60.6367 148.059 60.6903 148.096 60.7515 148.113C60.8126 148.129 60.8775 148.124 60.9355 148.099C60.9934 148.073 61.0408 148.028 61.0698 147.972C61.0988 147.915 61.1075 147.85 61.0947 147.788Z" fill="#F3387E"/>
<path d="M183.056 111.438L181.527 108.129C181.383 107.793 181.174 107.49 180.911 107.237C180.648 106.983 180.338 106.784 179.998 106.652C179.658 106.519 179.294 106.455 178.929 106.464C178.564 106.472 178.204 106.553 177.871 106.702L162.159 113.906C162.105 113.933 162.061 113.977 162.035 114.032C162.009 114.086 162.002 114.148 162.015 114.207C162.028 114.266 162.061 114.319 162.108 114.357C162.154 114.396 162.213 114.418 162.273 114.419C162.416 114.419 161.888 114.576 178.128 107.187C178.666 106.944 179.279 106.924 179.832 107.129C180.386 107.335 180.836 107.75 181.085 108.285L182.599 111.595C182.735 111.863 182.816 112.157 182.836 112.457C182.856 112.758 182.815 113.059 182.714 113.343C182.614 113.627 182.457 113.888 182.253 114.11C182.049 114.331 181.802 114.509 181.527 114.633L166.116 121.68C166.049 121.708 165.997 121.762 165.97 121.828C165.943 121.895 165.944 121.97 165.973 122.036C166.001 122.102 166.055 122.155 166.122 122.181C166.189 122.208 166.264 122.207 166.33 122.179L181.756 115.047C182.4 114.732 182.896 114.179 183.139 113.506C183.381 112.832 183.352 112.09 183.056 111.438Z" fill="#F3387E"/>
<path d="M134.501 137.013C134.44 137.012 134.382 136.99 134.335 136.951C134.288 136.912 134.255 136.859 134.242 136.8C134.229 136.74 134.236 136.678 134.262 136.623C134.288 136.569 134.332 136.524 134.387 136.497L141.219 133.356C141.251 133.334 141.288 133.32 141.327 133.314C141.365 133.307 141.405 133.31 141.443 133.32C141.48 133.33 141.515 133.349 141.545 133.374C141.575 133.4 141.599 133.431 141.616 133.467C141.633 133.502 141.642 133.541 141.642 133.58C141.642 133.619 141.634 133.658 141.618 133.694C141.602 133.73 141.579 133.761 141.549 133.787C141.52 133.813 141.485 133.832 141.448 133.844C134.745 136.913 134.644 137.013 134.501 137.013Z" fill="#F3387E"/>
<path d="M148.122 59.2891C150.499 65.5611 152.355 70.2505 153.181 75.9127C153.181 75.9127 183.923 63.9785 198.114 39.0504C195.173 34.5359 191.018 30.947 186.127 28.6987C170.125 48.6326 156.935 56.2112 148.122 59.2891Z" fill="#E6E7E8"/>
<path d="M124.978 65.7901C125.859 65.24 126.623 64.5011 127.224 63.6199C131.188 63.4681 134.557 62.6334 136.532 60.1748C137.877 60.7792 139.354 60.9685 140.795 60.7212C142.347 64.0595 143.562 67.5648 144.419 71.1777C141.136 74.213 136.418 75.5182 130.208 75.9128C128.639 72.4392 126.893 69.0599 124.978 65.7901Z" fill="#E6E7E8"/>
<path d="M72.0061 95.3535C88.2803 94.7463 109.175 92.1585 124.978 86.6793C122.776 80.6817 119.992 74.9061 116.665 69.4321C104.643 73.9138 94.8282 73.9138 70.3581 75.5764C75.9643 75.1137 77.6418 94.5295 72.0061 95.3535Z" fill="#E6E7E8"/>
<path d="M226.328 112.343C225.892 111.403 225.188 110.609 224.302 110.058C223.416 109.507 222.387 109.223 221.341 109.241C220.294 109.259 219.276 109.579 218.411 110.161C217.545 110.742 216.87 111.561 216.468 112.516C215.177 112.095 213.773 112.172 212.538 112.732C211.302 113.291 210.327 114.293 209.808 115.535C208.813 115.21 207.744 115.18 206.733 115.448C205.721 115.715 204.811 116.269 204.112 117.04C203.414 117.812 202.959 118.768 202.803 119.791C202.646 120.815 202.795 121.861 203.232 122.802C203.668 123.743 204.373 124.537 205.259 125.088C206.146 125.639 207.176 125.922 208.223 125.903C209.27 125.884 210.289 125.563 211.154 124.98C212.019 124.397 212.693 123.577 213.094 122.621C214.385 123.042 215.789 122.965 217.025 122.405C218.26 121.845 219.235 120.844 219.755 119.602C220.748 119.924 221.815 119.953 222.825 119.686C223.835 119.418 224.744 118.866 225.441 118.096C226.138 117.326 226.593 116.372 226.751 115.35C226.908 114.329 226.761 113.284 226.328 112.343ZM210.128 124.935C209.411 125.26 208.625 125.408 207.837 125.364C207.05 125.321 206.285 125.088 205.609 124.686C204.934 124.284 204.367 123.724 203.96 123.057C203.553 122.389 203.317 121.634 203.272 120.855C203.228 120.077 203.376 119.3 203.705 118.591C204.033 117.882 204.532 117.264 205.157 116.789C205.783 116.314 206.516 115.997 207.294 115.867C208.071 115.736 208.869 115.794 209.619 116.038C209.237 117.269 209.321 118.596 209.856 119.77C210.392 120.945 211.341 121.886 212.527 122.42C212.073 123.525 211.217 124.423 210.128 124.935ZM225.979 116.224C225.542 117.383 224.667 118.33 223.54 118.866C222.412 119.402 221.118 119.486 219.929 119.099C220.311 117.868 220.226 116.541 219.691 115.367C219.156 114.192 218.207 113.251 217.021 112.717C217.529 111.591 218.457 110.702 219.612 110.236C220.766 109.769 222.059 109.762 223.219 110.214C224.38 110.666 225.319 111.543 225.841 112.663C226.363 113.783 226.428 115.059 226.022 116.224H225.979Z" fill="#F3387E"/>
<path d="M96.533 118.374L92.2731 108.987C91.8675 108.091 91.291 107.284 90.5766 106.614C89.8623 105.943 89.024 105.422 88.11 105.079C87.1959 104.736 86.2239 104.579 85.2497 104.617C84.2755 104.654 83.3182 104.886 82.4327 105.298L69.1276 111.442C67.3397 112.273 65.9511 113.787 65.2669 115.652C64.5827 117.517 64.6587 119.58 65.4782 121.389L69.7381 130.791C70.5602 132.598 72.0582 134.001 73.9033 134.693C75.7483 135.385 77.7895 135.308 79.5785 134.479L92.8694 128.322C94.6599 127.493 96.0516 125.98 96.7386 124.115C97.4256 122.249 97.3516 120.185 96.533 118.374ZM92.6564 127.805L79.3513 133.963C78.53 134.343 77.6426 134.556 76.7397 134.59C75.8368 134.624 74.9363 134.477 74.0896 134.158C73.2428 133.84 72.4666 133.355 71.8052 132.733C71.1438 132.111 70.6103 131.363 70.2351 130.532L65.9752 121.145C65.2453 119.477 65.1919 117.586 65.8265 115.879C66.4611 114.172 67.7331 112.785 69.369 112.016L82.6599 105.858C83.4822 105.477 84.3707 105.264 85.2746 105.23C86.1785 105.196 87.0802 105.343 87.9281 105.661C88.7759 105.98 89.5534 106.464 90.2161 107.087C90.8788 107.709 91.4137 108.457 91.7903 109.288L96.0502 118.676C96.7764 120.344 96.8278 122.233 96.1936 123.939C95.5593 125.646 94.2898 127.033 92.6564 127.805Z" fill="#F3387E"/>
<path d="M219.151 94.9736L217.587 91.5371C217.437 91.1871 217.219 90.8707 216.946 90.6061C216.674 90.3415 216.352 90.1341 215.999 89.9958C215.646 89.8574 215.27 89.7909 214.892 89.8002C214.514 89.8094 214.141 89.8941 213.795 90.0495L187.74 102.144C187.4 102.301 187.094 102.524 186.839 102.801C186.585 103.077 186.387 103.402 186.256 103.755C186.126 104.109 186.067 104.485 186.081 104.862C186.095 105.239 186.182 105.609 186.338 105.952L187.902 109.404C188.131 109.905 188.497 110.329 188.957 110.627C189.417 110.925 189.952 111.084 190.499 111.085C191.384 111.085 189.51 111.813 217.749 98.7819C218.434 98.4615 218.965 97.8816 219.227 97.1685C219.49 96.4553 219.462 95.6665 219.151 94.9736ZM217.513 98.2761L191.458 110.311C191.184 110.438 190.888 110.509 190.586 110.52C190.285 110.531 189.984 110.482 189.702 110.376C189.42 110.269 189.161 110.108 188.94 109.9C188.72 109.692 188.543 109.443 188.419 109.165L186.84 105.729C186.714 105.452 186.643 105.152 186.632 104.847C186.621 104.542 186.669 104.238 186.775 103.952C186.88 103.666 187.041 103.404 187.247 103.18C187.453 102.957 187.701 102.776 187.976 102.65L214.031 90.6148C214.305 90.4878 214.602 90.4167 214.903 90.4055C215.204 90.3944 215.505 90.4435 215.788 90.5499C216.07 90.6564 216.329 90.8182 216.549 91.0259C216.769 91.2336 216.947 91.4832 217.071 91.7603L218.649 95.2116C218.9 95.7701 218.921 96.4059 218.708 96.98C218.495 97.5542 218.066 98.0201 217.513 98.2761Z" fill="#F3387E"/>
<path d="M276.386 68.113C276.047 67.3416 275.48 66.6935 274.762 66.2561C274.044 65.8188 273.21 65.6133 272.373 65.6674L267.534 29.7556L275.068 26.4221C275.119 26.385 275.156 26.3314 275.172 26.2703C275.188 26.2092 275.184 26.1443 275.158 26.0863C275.133 26.0284 275.088 25.981 275.032 25.952C274.976 25.9231 274.912 25.9143 274.85 25.9272L267.128 29.3335C267.077 29.3614 267.034 29.4037 267.006 29.4554C266.978 29.5071 266.965 29.5658 266.969 29.6246L268.548 41.2701C228.924 58.8403 231.474 57.6466 231.474 57.9232C231.474 58.1997 230.808 57.3991 242.847 69.2921C243.021 69.4668 241.08 70.0199 271.054 60.2959L271.808 65.813C271.233 65.9306 270.69 66.1711 270.216 66.5183C269.743 66.8654 269.349 67.311 269.061 67.8247C268.774 68.3385 268.6 68.9084 268.552 69.4956C268.503 70.0829 268.581 70.6738 268.78 71.2281L255.075 77.3129C254.584 76.3687 253.747 75.6532 252.74 75.3177C251.734 74.9821 250.637 75.0527 249.682 75.5146C248.727 75.9765 247.987 76.7935 247.62 77.7929C247.253 78.7924 247.288 79.896 247.716 80.8707C248.143 81.8454 248.932 82.6147 249.914 83.0161C250.896 83.4176 251.995 83.4197 252.978 83.0221C253.962 82.6245 254.753 81.8582 255.185 80.8852C255.617 79.9122 255.655 78.8087 255.292 77.8078L269.012 71.7376C269.49 72.7202 270.337 73.4716 271.367 73.8264C272.397 74.1813 273.525 74.1107 274.503 73.63C275.48 73.1494 276.228 72.2981 276.581 71.2634C276.935 70.2288 276.864 69.0955 276.386 68.113ZM243.064 68.7244L232.184 58.0105L268.548 41.9106L270.939 59.6991L243.064 68.7244ZM254.654 80.3699C254.443 80.9132 254.101 81.3959 253.66 81.7752C253.219 82.1544 252.691 82.4186 252.124 82.5444C251.557 82.6702 250.968 82.6536 250.409 82.4962C249.85 82.3389 249.338 82.0455 248.918 81.6421C248.499 81.2386 248.184 80.7376 248.003 80.1831C247.822 79.6287 247.78 79.038 247.88 78.4633C247.981 77.8886 248.22 77.3475 248.578 76.8879C248.936 76.4283 249.4 76.0643 249.931 75.8281C250.579 75.5394 251.298 75.452 251.996 75.5773C252.693 75.7026 253.337 76.0349 253.845 76.5312C254.353 77.0276 254.702 77.6653 254.846 78.3624C254.99 79.0595 254.924 79.784 254.654 80.4426V80.3699ZM273.952 72.9459C273.313 73.2323 272.603 73.3217 271.913 73.2025C271.223 73.0834 270.584 72.7611 270.077 72.2766C269.57 71.7921 269.217 71.1671 269.063 70.4809C268.91 69.7947 268.962 69.0782 269.215 68.4221C269.467 67.766 269.907 67.1999 270.48 66.7956C271.053 66.3913 271.732 66.167 272.432 66.151C273.132 66.135 273.821 66.3282 274.411 66.706C275.001 67.0838 275.467 67.6292 275.748 68.2731C275.95 68.6985 276.064 69.1601 276.086 69.6306C276.107 70.1011 276.034 70.5712 275.873 71.0132C275.711 71.4553 275.462 71.8604 275.143 72.2047C274.823 72.5491 274.438 72.8258 274.01 73.0186L273.952 72.9459Z" fill="#F3387E"/>
<path d="M147.194 85.4247C146.837 82.5947 146.266 79.7971 145.485 77.057C145.175 75.9753 144.1 79.2052 134.478 80.2569C134.436 80.2605 134.396 80.2743 134.36 80.2969C134.325 80.3196 134.295 80.3505 134.274 80.3871C134.252 80.4238 134.239 80.4651 134.236 80.5077C134.234 80.5504 134.241 80.5931 134.257 80.6324C135.13 83.1615 135.776 85.7662 136.187 88.4143C136.191 88.4596 136.207 88.5029 136.233 88.5399C136.259 88.5768 136.294 88.6061 136.335 88.6246L142.847 91.6292C142.907 91.6542 142.974 91.6574 143.035 91.6382C143.097 91.6191 143.15 91.5787 143.186 91.5241C147.43 85.1393 147.194 85.6501 147.194 85.4247ZM142.862 90.9532L136.718 88.189C136.321 85.6659 135.709 83.1828 134.891 80.7676C138.474 80.5131 141.952 79.4236 145.058 77.5828C145.768 80.1342 146.295 82.735 146.634 85.3646L142.862 90.9532Z" fill="#120409"/>
<path d="M37.4011 29.0274C37.0612 28.2763 36.9518 27.4412 37.0868 26.6279C37.2218 25.8145 37.5951 25.0595 38.1594 24.4585C38.7237 23.8574 39.4537 23.4373 40.2569 23.2514C41.0602 23.0654 41.9005 23.122 42.6715 23.4139C43.4426 23.7058 44.1097 24.22 44.5884 24.8912C45.067 25.5625 45.3358 26.3607 45.3606 27.1848C45.3854 28.0089 45.1651 28.8218 44.7276 29.5206C44.2901 30.2194 43.6551 30.7727 42.903 31.1104C41.8969 31.5621 40.7529 31.5965 39.7215 31.2061C38.6902 30.8156 37.8557 30.0321 37.4011 29.0274ZM39.6995 24.0139C39.0479 24.3086 38.4981 24.7897 38.1197 25.3965C37.7412 26.0033 37.5509 26.7086 37.5728 27.4234C37.5948 28.1382 37.8279 28.8305 38.2429 29.413C38.6579 29.9954 39.2361 30.4419 39.9046 30.6961C40.573 30.9503 41.3018 31.0007 41.9989 30.8412C42.696 30.6816 43.3303 30.3191 43.8216 29.7994C44.313 29.2798 44.6394 28.6262 44.7596 27.9213C44.8799 27.2163 44.7887 26.4915 44.4975 25.8383C44.1022 24.961 43.3751 24.2763 42.4757 23.9342C41.5762 23.5922 40.5779 23.6209 39.6995 24.0139Z" fill="#F3387E"/>
<path d="M51.2912 33.6644C51.007 33.04 50.8815 32.3551 50.9257 31.6706C50.9699 30.986 51.1824 30.3229 51.5445 29.7402C51.9065 29.1575 52.4069 28.6733 53.0011 28.3304C53.5953 27.9876 54.265 27.7968 54.9507 27.7751C55.6363 27.7533 56.3168 27.9011 56.9315 28.2055C57.5463 28.5099 58.0764 28.9615 58.4747 29.52C58.873 30.0785 59.1273 30.7268 59.2148 31.4072C59.3024 32.0876 59.2206 32.7791 58.9766 33.4202C58.6843 34.1886 58.1712 34.8533 57.5019 35.3306C56.8325 35.808 56.0369 36.0766 55.2153 36.1027C54.3936 36.1288 53.5826 35.9112 52.8843 35.4774C52.186 35.0435 51.6317 34.4127 51.2912 33.6644ZM51.6934 30.6621C51.4842 31.2185 51.4152 31.8178 51.4925 32.4071C51.5699 32.9965 51.7911 33.5577 52.1368 34.0413C52.4824 34.5249 52.9418 34.9159 53.4744 35.1799C54.007 35.4438 54.5964 35.5725 55.1905 35.5547C55.7847 35.5368 56.3653 35.3729 56.8811 35.0775C57.3969 34.7821 57.832 34.3642 58.148 33.8607C58.464 33.3573 58.6511 32.7838 58.6929 32.1908C58.7347 31.5979 58.6299 31.0038 58.3877 30.461C58.0902 29.811 57.6076 29.2633 57.0004 28.8862C56.3932 28.509 55.6883 28.3194 54.9738 28.3408C54.2594 28.3623 53.5671 28.5939 52.9836 29.0068C52.4001 29.4197 51.9514 29.9955 51.6934 30.6621Z" fill="#F3387E"/>
<path d="M43.5492 41.2473L52.2444 17.7618C52.3705 17.433 52.8745 17.6188 52.7485 17.9476L44.0392 41.4332C44.0327 41.4726 44.0177 41.51 43.9953 41.5428C43.973 41.5756 43.9438 41.6029 43.9099 41.6229C43.876 41.6428 43.8382 41.6549 43.7992 41.6583C43.7603 41.6616 43.721 41.6561 43.6843 41.6422C43.6477 41.6283 43.6144 41.6063 43.587 41.5778C43.5596 41.5493 43.5387 41.5149 43.5258 41.4772C43.5129 41.4395 43.5083 41.3994 43.5123 41.3596C43.5164 41.3199 43.529 41.2815 43.5492 41.2473Z" fill="#F3387E"/>
<path d="M146.806 189.666L140.377 192.642L137.407 186.2C137.371 186.146 137.316 186.106 137.253 186.089C137.19 186.071 137.123 186.077 137.064 186.105C137.005 186.132 136.958 186.181 136.932 186.24C136.905 186.3 136.901 186.367 136.919 186.43L139.889 192.872L133.461 195.849C133.407 195.876 133.363 195.921 133.337 195.976C133.31 196.031 133.303 196.093 133.317 196.153C133.33 196.212 133.362 196.266 133.409 196.304C133.456 196.343 133.515 196.365 133.576 196.367C133.691 196.367 133.461 196.367 140.105 193.347L143.075 199.803C143.09 199.836 143.111 199.866 143.138 199.891C143.164 199.916 143.196 199.935 143.23 199.948C143.264 199.96 143.3 199.966 143.336 199.965C143.372 199.964 143.408 199.955 143.441 199.94C143.474 199.925 143.503 199.903 143.528 199.877C143.553 199.85 143.572 199.819 143.585 199.785C143.597 199.751 143.603 199.715 143.602 199.678C143.601 199.642 143.592 199.606 143.577 199.573L140.593 193.131L147.035 190.169C147.102 190.138 147.154 190.083 147.179 190.014C147.205 189.945 147.202 189.869 147.172 189.802C147.141 189.735 147.085 189.684 147.017 189.658C146.948 189.632 146.872 189.635 146.806 189.666Z" fill="#F3387E"/>
<path d="M195.662 71.9044C195.759 70.985 195.616 70.0555 195.247 69.2124C194.878 68.3693 194.298 67.6433 193.565 67.1096C193.519 67.0649 193.491 67.0042 193.486 66.9392C193.48 66.8742 193.499 66.8096 193.537 66.7579C193.576 66.7061 193.632 66.671 193.694 66.6592C193.756 66.6473 193.82 66.6597 193.874 66.6939C194.68 67.272 195.324 68.0598 195.74 68.9774C196.155 69.895 196.328 70.9097 196.24 71.9183C196.239 71.9574 196.23 71.996 196.215 72.0318C196.2 72.0676 196.178 72.0999 196.15 72.1269C196.123 72.1539 196.09 72.1751 196.055 72.1893C196.02 72.2034 195.982 72.2102 195.944 72.2093C195.906 72.2084 195.869 72.1998 195.834 72.184C195.799 72.1681 195.768 72.1454 195.742 72.1171C195.715 72.0888 195.695 72.0555 195.681 72.019C195.667 71.9825 195.661 71.9435 195.662 71.9044Z" fill="#F3387E"/>
<path d="M201.244 71.9836C201.272 70.1707 200.849 68.3751 200.004 66.7306C199.159 65.086 197.915 63.6347 196.364 62.4846C196.079 62.2539 196.454 61.874 196.724 62.0911C198.33 63.2817 199.621 64.782 200.501 66.4821C201.382 68.1821 201.831 70.0387 201.814 71.9158C201.824 71.9842 201.804 72.0533 201.757 72.108C201.734 72.1351 201.705 72.1579 201.673 72.1749C201.64 72.192 201.604 72.2031 201.566 72.2076C201.491 72.2165 201.414 72.198 201.354 72.156C201.293 72.114 201.254 72.052 201.244 71.9836Z" fill="#F3387E"/>
<path d="M206.814 72.9383C206.313 66.8804 203.582 61.2026 199.123 56.9493C199.07 56.8969 199.039 56.8257 199.039 56.7515C199.039 56.6773 199.07 56.6061 199.123 56.5536C199.177 56.5012 199.25 56.4717 199.327 56.4717C199.403 56.4717 199.476 56.5012 199.53 56.5536C204.078 60.9042 206.862 66.706 207.371 72.8943C207.362 72.9573 207.332 73.0154 207.285 73.0591C207.237 73.1028 207.176 73.1294 207.111 73.1345C207.046 73.1397 206.981 73.123 206.927 73.0873C206.873 73.0516 206.833 72.999 206.814 72.9383Z" fill="#F3387E"/>
<path d="M171.05 6.92304C170.783 6.25908 170.297 5.74264 169.698 5.48645C169.098 5.23026 168.435 5.25514 167.851 5.55565L166.844 6.08396L165.251 2.13716L168.232 0.583308C168.296 0.550339 168.345 0.490072 168.369 0.415764C168.393 0.341456 168.391 0.259195 168.362 0.187076C168.333 0.114957 168.28 0.0588867 168.215 0.0312033C168.15 0.00351984 168.078 0.00648864 168.015 0.0394573L165.033 1.59331L164.475 0.179305C164.448 0.107186 164.397 0.0502996 164.333 0.0211591C164.269 -0.00798131 164.198 -0.00698677 164.135 0.0239214C164.072 0.0548295 164.022 0.113119 163.996 0.18597C163.971 0.258821 163.972 0.340264 163.999 0.412383L164.571 1.8264L163.563 2.3547C163.254 2.49016 162.973 2.69648 162.736 2.96092C162.5 3.22536 162.313 3.54231 162.188 3.89222C162.063 4.24214 162.002 4.61758 162.009 4.99539C162.016 5.3732 162.091 5.74536 162.229 6.08891C162.367 6.43246 162.565 6.74011 162.811 6.99287C163.057 7.24563 163.346 7.43814 163.66 7.55853C163.974 7.67891 164.306 7.72462 164.636 7.69283C164.966 7.66103 165.286 7.55241 165.578 7.37366L166.585 6.84535L168.178 10.8077L165.197 12.3615C165.161 12.3737 165.128 12.3945 165.1 12.4225C165.072 12.4506 165.05 12.4852 165.035 12.524C165.019 12.5627 165.012 12.6048 165.012 12.6473C165.013 12.6898 165.021 12.7317 165.037 12.7701C165.053 12.8086 165.076 12.8426 165.104 12.87C165.132 12.8974 165.166 12.9175 165.202 12.9289C165.237 12.9403 165.275 12.9426 165.312 12.9359C165.349 12.9292 165.384 12.9135 165.415 12.8899L168.382 11.336L168.954 12.75C168.965 12.7907 168.983 12.8283 169.007 12.8602C169.032 12.8922 169.062 12.9177 169.096 12.935C169.13 12.9523 169.167 12.9611 169.204 12.9607C169.241 12.9603 169.278 12.9507 169.312 12.9326C169.345 12.9145 169.375 12.8883 169.399 12.8559C169.423 12.8234 169.441 12.7854 169.451 12.7445C169.461 12.7035 169.463 12.6606 169.457 12.6187C169.451 12.5767 169.437 12.5367 169.417 12.5014L168.859 11.0874L169.866 10.5591C170.444 10.2547 170.893 9.70132 171.115 9.01999C171.337 8.33865 171.314 7.58474 171.05 6.92304ZM165.36 6.92304C165.133 7.0427 164.888 7.10987 164.638 7.12069C164.388 7.13151 164.139 7.08575 163.905 6.98607C163.671 6.88639 163.457 6.73475 163.274 6.53991C163.091 6.34506 162.945 6.11088 162.842 5.85088C162.633 5.32504 162.615 4.72651 162.791 4.18534C162.967 3.64417 163.323 3.20409 163.781 2.96071L164.788 2.4324L166.367 6.39473L165.36 6.92304ZM169.648 10.0308L168.641 10.5591L167.048 6.61227L168.055 6.08396C168.284 5.94742 168.535 5.86541 168.793 5.84291C169.05 5.82042 169.309 5.8579 169.553 5.9531C169.798 6.04829 170.023 6.19921 170.215 6.39668C170.406 6.59415 170.561 6.83406 170.669 7.10183C170.777 7.3696 170.836 7.65965 170.843 7.95436C170.85 8.24907 170.804 8.54229 170.709 8.81622C170.613 9.09014 170.47 9.33906 170.288 9.54784C170.105 9.75663 169.888 9.92093 169.648 10.0308Z" fill="#F3387E"/>
<path d="M32.9788 115.332C32.5875 114.47 31.8731 113.797 30.9908 113.46C30.1086 113.123 29.1295 113.149 28.2662 113.532C17.7425 116.044 13.7238 115.898 12.365 112.951L11.1652 110.309C11.0475 110.034 10.9868 109.738 10.9868 109.438C10.9868 109.139 11.0475 108.842 11.1652 108.567C11.3331 108.128 11.6237 107.748 12.0019 107.471C12.3802 107.194 12.8301 107.033 13.2974 107.007C13.7648 106.981 14.2296 107.091 14.6361 107.324C15.0426 107.557 15.3734 107.903 15.5886 108.32C15.6193 108.388 15.6754 108.44 15.7445 108.466C15.8136 108.492 15.8902 108.489 15.9572 108.458C16.0243 108.427 16.0765 108.371 16.1022 108.302C16.128 108.232 16.1252 108.155 16.0946 108.088C15.8313 107.577 15.4274 107.152 14.9308 106.864C14.4343 106.577 13.8659 106.439 13.2934 106.466C12.7209 106.494 12.1683 106.686 11.7013 107.02C11.2343 107.354 10.8726 107.815 10.6592 108.349C10.406 109.003 10.406 109.728 10.6592 110.382C12.2494 114.635 15.7043 115.681 1.98586 125.538C1.15372 125.957 0.515624 126.684 0.205545 127.565C-0.104534 128.447 -0.0624791 129.415 0.322881 130.266C0.708241 131.117 1.40693 131.785 2.27226 132.13C3.13759 132.474 4.10226 132.469 4.96372 132.115L31.2007 120.196C31.6385 119.997 32.0325 119.713 32.3596 119.36C32.6868 119.007 32.9405 118.591 33.1061 118.139C33.2716 117.686 33.3456 117.204 33.3238 116.723C33.3019 116.241 33.1846 115.768 32.9788 115.332ZM30.9694 119.615L4.67461 131.606C3.94785 131.949 3.11541 131.989 2.35952 131.717C1.60364 131.445 0.985882 130.883 0.641487 130.155C0.46823 129.78 0.371203 129.374 0.35609 128.961C0.340977 128.548 0.408081 128.136 0.553472 127.749C0.698863 127.363 0.919619 127.009 1.20281 126.709C1.486 126.409 1.82593 126.169 2.2027 126.003C9.90755 120.5 12.9288 117.292 12.7842 114.389C13.4253 114.929 14.167 115.335 14.9662 115.585C15.7654 115.834 16.606 115.921 17.4389 115.84C21.1834 115.649 24.8962 115.051 28.512 114.055C29.2411 113.761 30.0548 113.762 30.7836 114.056C31.5124 114.35 32.1001 114.915 32.4243 115.634C32.7485 116.352 32.7842 117.169 32.5239 117.913C32.2637 118.657 31.7276 119.272 31.0273 119.629L30.9694 119.615Z" fill="#F3387E"/>
<path d="M229.428 211.444C222.156 202.425 208.122 197.638 199.25 188.094C203.322 186.929 207.264 185.349 211.016 183.381C211.055 183.358 211.087 183.324 211.11 183.285C211.133 183.245 211.144 183.2 211.144 183.155C211.144 183.109 211.133 183.064 211.11 183.024C211.087 182.985 211.055 182.952 211.016 182.928C182.598 160.878 157.83 106.679 152.682 93.1799C153.545 87.5124 153.633 81.7533 152.944 76.062C156.347 74.7924 184.358 62.928 198.028 38.9805C198.057 38.9373 198.073 38.8865 198.073 38.8346C198.073 38.7826 198.057 38.7318 198.028 38.6886L197.505 37.9152C202.435 32.8805 223.334 21.8626 219.465 21.3518C218.398 21.2506 217.321 21.3597 216.295 21.6729C217.415 20.9724 218.884 20.0676 220.178 19.3526C220.789 19.0315 221.007 18.6959 220.833 18.3748C220.469 17.6743 217.764 17.864 215.611 18.6229L220.891 12.7856C221.097 12.5585 221.256 12.2925 221.359 12.0031C221.462 11.7138 221.507 11.4068 221.49 11.0999C221.474 10.7931 221.397 10.4926 221.264 10.2158C221.132 9.93901 220.945 9.69145 220.716 9.48751L210.885 0.600216C210.423 0.185113 209.817 -0.0295457 209.198 0.00327913C208.579 0.0361039 207.999 0.313734 207.583 0.775334L194.494 15.3686C194.081 15.8316 193.867 16.4402 193.899 17.0611C193.932 17.6821 194.209 18.2647 194.669 18.6813L195.512 19.4401C192.706 23.0884 189.142 27.3643 187.528 29.0279C187.005 28.7506 186.481 28.4733 185.928 28.2107C185.875 28.1844 185.814 28.1773 185.756 28.1906C185.697 28.2039 185.645 28.2367 185.608 28.2836C174.163 42.4099 158.238 57.8496 140.378 60.6515C136.539 61.2644 133.441 59.0754 132.932 56.7405C136.103 55.5438 137.164 53.1214 135.535 49.7065C139.619 48.8253 143.233 46.4591 145.681 43.0637C148.13 39.6683 149.24 35.4839 148.798 31.3163C148.355 27.1487 146.392 23.2928 143.285 20.4912C140.179 17.6896 136.149 16.1404 131.972 16.142C121.297 16.142 112.557 26.08 115.684 38.4405C113.124 34.888 109.441 32.3109 105.234 31.1301C101.027 29.9493 96.545 30.2344 92.5203 31.939C88.4957 33.6436 85.1658 36.667 83.0744 40.5154C80.983 44.3639 80.2536 48.8101 81.0052 53.1282C81.7569 57.4463 83.9453 61.3811 87.213 64.2902C90.4808 67.1994 94.6349 68.911 98.9971 69.1456C103.359 69.3802 107.672 68.124 111.231 65.582C114.79 63.0401 117.385 59.3625 118.592 55.1498C120.905 56.3319 123.988 56.6092 125.864 57.908C127.755 61.6438 127.202 64.1539 122.083 66.5763C106.55 73.9605 98.0569 73.4498 70.2935 75.4345C69.6157 75.5527 68.9842 75.8585 68.4703 76.3175C67.9564 76.7764 67.5805 77.3703 67.3848 78.0321C66.0415 78.166 64.6908 78.2099 63.3417 78.1634C54.3393 74.8069 52.4341 71.9759 47.2567 68.5464C46.6749 68.1524 45.9332 68.5464 46.1223 69.4658C46.6213 70.7452 47.3565 71.9187 48.2893 72.9244C45.9914 71.8153 42.8646 70.0058 40.7558 69.1156C40.5961 69.0311 40.4115 69.0067 40.2355 69.0469C40.0594 69.087 39.9035 69.189 39.7959 69.3345C39.505 69.7869 39.665 70.7938 42.0937 72.9244C42.4864 73.2601 44.1153 74.6902 45.4678 75.8431C44.1153 75.4053 42.7482 74.8945 41.3375 74.3838C38.0943 73.0558 36.2182 72.7493 35.7819 73.5227C35.6365 73.7854 35.1565 74.6172 39.2578 77.7548C44.265 81.0972 49.6314 83.863 55.2556 86C55.3428 86.1459 55.91 86.4086 55.8518 86.861C55.6628 88.3203 50.0345 89.9256 48.5801 90.7428C46.9949 91.7205 45.8896 92.4502 46.1223 93.1361C46.2386 93.4863 46.6458 93.7928 48.3911 93.7928C54.9706 93.2743 61.5735 93.1184 68.1701 93.3258C69.7117 96.2444 71.0788 96.1131 72.3877 96.0547C91.4542 95.2667 110.637 92.0562 123.901 87.4447C125.544 91.9102 126.809 96.0401 127.435 97.3098C121.748 103.016 115.145 97.0909 106.885 140.856C87.9783 140.856 81.841 142.315 63.6762 144.417C63.6239 144.424 63.5746 144.446 63.5336 144.479C63.4926 144.513 63.4615 144.557 63.4435 144.607C63.1381 145.584 62.8763 146.562 62.6436 147.525C56.6058 147.747 50.5629 147.257 44.6388 146.066C44.579 146.05 44.5154 146.056 44.4595 146.083C44.4036 146.109 44.3589 146.155 44.3334 146.212C37.7453 160.557 33.804 177.689 32.4078 184.388C32.397 184.439 32.4007 184.492 32.4185 184.541C32.4362 184.59 32.4674 184.632 32.5084 184.664C32.5494 184.696 32.5985 184.716 32.6502 184.721C32.7019 184.727 32.7539 184.717 32.8005 184.694C47.0094 178.025 47.6057 163.403 61.6838 161.797C62.2396 166.898 63.3816 171.918 65.0869 176.755C65.0966 176.791 65.1137 176.824 65.137 176.853C65.1604 176.881 65.1895 176.905 65.2224 176.921C65.2554 176.938 65.2914 176.947 65.3282 176.949C65.365 176.95 65.4017 176.944 65.436 176.931L112.891 161.345C116.278 160.235 119.279 158.179 121.545 155.42C128.382 147.116 134.076 137.928 138.473 128.102C144.29 146.329 160.681 175.69 170.745 191.626C170.77 191.664 170.805 191.695 170.846 191.715C170.887 191.736 170.932 191.745 170.978 191.743C175.077 191.757 179.174 191.557 183.252 191.144C188.793 198.937 187.746 200.659 189.753 204.453C189.787 204.511 189.838 204.557 189.899 204.585C198.988 208.321 219.073 211.881 229.166 211.969C229.235 212.004 229.316 212.01 229.389 211.985C229.463 211.96 229.524 211.907 229.559 211.838C229.593 211.768 229.599 211.687 229.574 211.613C229.55 211.54 229.497 211.478 229.428 211.444ZM220.222 18.5499C220.102 18.6537 219.97 18.742 219.829 18.8126C217.444 20.126 214.492 22.0377 214.143 22.2712C213.042 22.7023 211.965 23.1894 210.914 23.7305L214.666 19.5569C216.38 18.6843 218.312 18.3342 220.222 18.5499ZM194.902 18.1997C194.552 17.8813 194.343 17.4373 194.318 16.9644C194.294 16.4915 194.456 16.0281 194.771 15.6751L207.86 1.08179C208.18 0.730402 208.625 0.519585 209.098 0.495002C209.572 0.47042 210.036 0.63405 210.39 0.950454L220.222 9.83775C220.396 9.99437 220.538 10.1841 220.64 10.3961C220.741 10.608 220.799 10.838 220.811 11.0727C220.823 11.3074 220.789 11.5422 220.71 11.7636C220.632 11.9849 220.51 12.1884 220.353 12.3624L207.264 26.9556C207.107 27.1375 206.915 27.2856 206.7 27.3911C206.485 27.4966 206.251 27.5573 206.012 27.5696C205.772 27.5819 205.533 27.5455 205.309 27.4625C205.084 27.3796 204.878 27.2518 204.704 27.087L200.443 23.249C199.585 22.0523 201.897 16.7696 202.144 15.2373C202.406 13.3839 202.551 12.0705 201.882 11.8078C200.719 11.3554 198.828 14.8286 195.672 18.9439L194.902 18.1997ZM198.654 15.8502C201.141 12.1873 201.679 12.2748 201.737 12.304C201.795 12.3332 201.97 12.9023 201.635 15.1351C201.403 16.7696 198.727 22.5193 200.181 23.6284L202.639 25.8466C200.69 25.5085 198.688 25.6742 196.821 26.3281C196.761 26.3563 196.712 26.4055 196.685 26.4666C196.658 26.5277 196.654 26.5967 196.673 26.6608C196.693 26.7248 196.735 26.7796 196.791 26.815C196.848 26.8505 196.915 26.8641 196.981 26.8535C201.344 25.4963 203.54 26.7222 203.7 26.8535L204.442 27.5248C204.902 27.9417 205.507 28.1589 206.126 28.1288C206.745 28.0987 207.326 27.8238 207.743 27.3643L209.925 24.9418C210.449 24.6353 216.135 21.4978 219.349 21.8918C218.375 23.643 201.388 33.2161 197.17 37.4482C194.724 34.0907 191.584 31.3031 187.964 29.276C191.777 25.0064 195.346 20.524 198.654 15.8502ZM185.797 28.736C190.518 30.9442 194.543 34.4125 197.432 38.7616C183.965 62.2859 155.998 74.194 152.871 75.4345C151.803 69.8847 150.15 64.4646 147.941 59.2651C160.216 54.9893 172.956 44.701 185.797 28.736ZM124.977 55.2374C124.817 55.0039 124.061 54.2159 123.653 54.1867C118.709 53.8948 118.738 49.5898 121.501 50.3632C123.392 50.8886 123.784 50.3632 123.232 48.9039C122.301 46.3939 122.548 42.5412 124.25 41.3592C125.704 40.3814 127.871 41.2716 130.547 44.0589C132.464 45.8685 134.049 48.0025 135.23 50.3632C135.788 51.4505 135.892 52.7156 135.521 53.8802C134.43 56.6383 129.703 56.8864 129.703 56.8864C129.645 56.8901 129.59 56.9122 129.545 56.9495C129.5 56.9868 129.468 57.0374 129.453 57.0941C129.439 57.1508 129.442 57.2107 129.464 57.2651C129.485 57.3196 129.523 57.3658 129.573 57.3972L134.212 59.6591C134.627 59.9873 135.076 60.271 135.55 60.5056C133.848 62.2859 131.1 63.2199 126.969 63.4242C128.322 60.7828 126.62 57.7328 124.977 55.2374ZM126.606 63.9933C131.216 63.8182 134.226 62.7821 136.073 60.7536C137.404 61.2783 138.848 61.4443 140.262 61.2352C141.768 64.3179 142.962 67.5446 143.825 70.8668C140.916 73.4498 136.553 74.8069 129.732 75.2447C128.161 72.0356 126.428 68.9086 124.54 65.8759C125.337 65.3611 126.036 64.7089 126.606 63.9496V63.9933ZM46.9513 68.9405C51.707 72.0926 53.2922 74.4129 60.3312 77.4775C56.6242 76.3288 52.9871 74.9644 49.4382 73.3914L48.3765 72.1072C47.6155 71.3039 47.0309 70.3494 46.6604 69.3053C46.5731 68.8821 46.7331 68.7945 46.9513 68.9405ZM42.4573 72.4428C40.334 70.5895 40.1449 69.7431 40.2613 69.5242C40.3776 69.3053 40.4213 69.5242 40.5231 69.5242C42.9518 70.6187 47.0385 72.9536 49.3946 73.9022C53.0976 75.5729 56.9066 76.9964 60.7966 78.1634C56.0866 78.227 51.3957 77.5525 46.8931 76.1641C45.5551 75.1572 42.9664 72.8952 42.4573 72.4428ZM51.4306 92.8734C47.0676 93.2966 46.7622 92.8734 46.7331 92.7713C46.704 92.6691 47.0385 92.2021 48.9583 91.0201C50.5435 90.0715 57.2771 88.3787 56.3609 86.2335C57.2771 86.5691 58.2079 86.8756 59.1387 87.182C59.2069 87.2009 59.2797 87.1928 59.3422 87.1594C59.4046 87.126 59.4519 87.0698 59.4743 87.0024C59.4966 86.9351 59.4924 86.8616 59.4624 86.7973C59.4325 86.733 59.379 86.6826 59.3132 86.6567C52.339 84.3996 45.7042 81.1984 39.5923 77.1419C35.9128 74.3254 36.2618 73.6103 36.2618 73.6103C36.2618 73.6103 37.4835 73.2163 41.1339 74.7194C45.1492 76.3774 49.3409 77.5672 53.6267 78.2655C60.0603 78.9593 66.5531 78.8859 72.9695 78.0466C75.2696 82.6046 75.6977 87.8856 74.162 92.7567C69.4499 92.5232 55.6046 92.4794 51.4306 92.888V92.8734ZM73.1585 95.2813C75.2382 93.5155 75.7182 88.9916 75.5873 86.0584C75.4564 83.1251 74.2347 77.4337 71.806 75.8431C94.2465 74.267 104.02 74.2962 115.887 69.816C119.042 75.192 121.696 80.849 123.813 86.715C110.768 91.2973 91.9486 94.4787 73.1585 95.2959V95.2813ZM116.411 69.6555C119.038 68.6558 121.599 67.4859 124.075 66.1531C125.956 69.1722 127.684 72.2845 129.253 75.4782C129.369 75.7263 129.369 75.7993 129.674 75.7847C136.699 75.3469 141.207 73.9313 144.305 71.1586C144.342 71.1273 144.371 71.0862 144.386 71.0398C144.401 70.9934 144.404 70.9435 144.392 70.896C143.528 67.5243 142.34 64.2449 140.844 61.1039C143.063 60.7476 145.248 60.2008 147.374 59.4694C152.188 72.2094 154.005 77.9591 152.115 93.0339C147.665 97.8351 134.808 100.71 128.075 96.9887C126.824 94.537 123.261 81.082 116.411 69.6555ZM61.7565 161.082C47.533 162.688 46.7622 177.135 33.1641 183.789C34.6184 176.799 38.5015 160.353 44.7988 146.489C50.6571 147.624 56.6213 148.113 62.5854 147.948C61.6759 152.263 61.3966 156.687 61.7565 161.082ZM141.978 136.084C140.989 127.547 143.258 116.398 143.287 116.281C143.293 116.216 143.276 116.152 143.239 116.099C143.202 116.046 143.148 116.007 143.086 115.99C143.023 115.972 142.957 115.977 142.898 116.004C142.839 116.03 142.792 116.077 142.763 116.135C137.31 130.86 130.925 143.06 121.123 154.997C118.923 157.68 116.007 159.68 112.717 160.761L65.4505 176.332C62.0764 165.956 60.8402 155.201 63.9962 144.767C81.3756 142.709 88.1237 141.192 107.19 141.235C107.253 141.24 107.316 141.219 107.365 141.178C107.413 141.138 107.445 141.08 107.452 141.017C115.684 97.2368 122.083 103.351 127.9 97.5141C134.561 101.089 147.33 98.5356 152.231 93.6468C157.641 107.627 182.132 160.922 210.289 183.045C199.977 188.386 186.786 191.115 171.021 191.13C169.8 188.926 151.3 159.317 141.978 136.084ZM190.16 204.03C188.27 200.411 189.186 198.572 183.849 191.013C188.825 190.5 193.749 189.563 198.567 188.211C207.293 197.843 221.211 202.629 228.526 211.327C218.389 210.962 199.105 207.664 190.16 204.03Z" fill="#120409"/>
</svg>
