<svg width="241" height="196" viewBox="0 0 241 196" fill="none" xmlns="http://www.w3.org/2000/svg">
<path d="M144.585 135.584C143.872 139.1 141.722 153.964 140.902 158.573L111.484 154.491L114.365 129.241C114.372 129.184 114.356 129.127 114.321 129.082C114.286 129.037 114.234 129.008 114.178 129.001C114.122 128.995 114.066 129.011 114.021 129.046C113.977 129.082 113.948 129.134 113.942 129.191L111.062 154.433L109.242 154.181C109.214 154.177 109.186 154.179 109.159 154.186C109.132 154.193 109.106 154.205 109.084 154.223C109.062 154.24 109.043 154.261 109.029 154.286C109.015 154.31 109.006 154.337 109.002 154.365C108.998 154.393 109 154.422 109.007 154.449C109.014 154.477 109.026 154.503 109.043 154.525C109.06 154.548 109.081 154.567 109.106 154.581C109.13 154.595 109.156 154.605 109.184 154.608C143.215 159.269 141.141 159.175 141.272 158.886C141.413 158.386 144.553 137.86 144.999 135.672C145.004 135.619 144.99 135.566 144.959 135.523C144.927 135.48 144.882 135.45 144.831 135.44C144.779 135.429 144.726 135.438 144.68 135.464C144.635 135.491 144.601 135.534 144.585 135.584Z" fill="#F3387E"/>
<path d="M138.041 183.505C138.042 182.668 137.795 181.849 137.332 181.149C136.869 180.448 136.21 179.896 135.434 179.561C136.451 179.375 137.368 178.837 138.021 178.044C138.674 177.251 139.021 176.254 138.999 175.231C138.977 174.208 138.588 173.227 137.902 172.462C137.215 171.697 136.276 171.198 135.252 171.055C135.138 170.943 137.519 171.318 84.1478 164.097C83.0911 163.871 81.9874 164.043 81.0516 164.578C80.1157 165.113 79.4146 165.973 79.0848 166.991C78.755 168.009 78.8201 169.112 79.2673 170.085C79.7145 171.059 80.512 171.833 81.5044 172.256C80.583 172.421 79.7397 172.874 79.0992 173.549C78.4588 174.224 78.0554 175.086 77.9488 176.006C77.8423 176.925 78.0381 177.855 78.5074 178.656C78.9768 179.457 79.6945 180.087 80.5545 180.453C79.5237 180.642 78.5967 181.193 77.9444 182.005C77.292 182.817 76.9581 183.834 77.0042 184.87C77.0503 185.906 77.4733 186.89 78.1952 187.642C78.9171 188.394 79.8894 188.862 80.9331 188.961L132.372 195.979C132.97 196.038 133.573 195.973 134.143 195.787C134.713 195.602 135.237 195.299 135.681 194.9C136.226 194.418 136.639 193.808 136.882 193.126C137.125 192.444 137.191 191.713 137.074 191C136.956 190.286 136.659 189.614 136.209 189.044C135.76 188.474 135.172 188.025 134.501 187.738C135.497 187.549 136.394 187.023 137.04 186.251C137.686 185.478 138.04 184.508 138.041 183.505Z" fill="#F3387E"/>
<path d="M100.798 152.569L81.4349 150.016C81.5486 146.824 82.8849 132.811 82.9281 130.218C82.9287 130.19 82.9237 130.162 82.9134 130.135C82.9032 130.109 82.8878 130.085 82.8682 130.065C82.8487 130.045 82.8253 130.028 82.7994 130.017C82.7736 130.006 82.7458 130 82.7177 130C82.6614 130.001 82.6075 130.023 82.5671 130.062C82.5267 130.101 82.5028 130.155 82.5005 130.211C82.4527 133.015 80.847 149.658 81.0119 150.275C81.0206 150.301 81.0345 150.326 81.0528 150.347C81.1529 150.455 100.885 153.014 100.771 153C100.828 153.003 100.884 152.984 100.927 152.946C100.97 152.908 100.996 152.855 101 152.798C101.003 152.741 100.984 152.684 100.946 152.641C100.909 152.598 100.855 152.572 100.798 152.569Z" fill="#F3387E"/>
<path d="M127.697 0.511086C98.3704 -3.46787 71.4951 16.1962 68.3067 45.2011C67.6867 50.8411 68.0081 56.5438 69.2579 62.0802C69.3828 62.6428 75.3067 79.5309 78.0695 89.3184C78.0866 89.3701 78.1231 89.4132 78.1715 89.4388C78.2198 89.4644 78.2762 89.4707 78.329 89.4562C78.3818 89.4417 78.427 89.4077 78.4552 89.3611C78.4834 89.3145 78.4924 89.2589 78.4804 89.2059C76.3317 81.5924 69.7403 62.0284 69.6586 61.9148C61.7959 26.7906 91.4997 -3.97199 127.638 0.925185C163.805 5.83136 185.894 43.7687 170.726 75.6273C170.711 75.6401 170.699 75.6549 170.688 75.6712C161.173 91.1999 155.428 100.58 151.506 109.709C151.485 109.761 151.485 109.818 151.506 109.869C151.528 109.921 151.569 109.961 151.62 109.983C151.672 110.005 151.73 110.006 151.782 109.985C151.834 109.965 151.876 109.925 151.898 109.875C155.801 100.787 161.528 91.434 171.01 75.957C171.038 75.9375 171.06 75.9112 171.074 75.8805C186.436 43.7586 164.178 5.46002 127.697 0.511086Z" fill="#F3387E"/>
<path d="M117.823 42.9273L105.185 41.1561C103.333 40.8541 101.437 40.9915 99.6448 41.5579C97.8524 42.1242 96.2107 43.1043 94.8463 44.4227C93.4818 45.741 92.431 47.3626 91.7747 49.1623C91.1185 50.9621 90.8742 52.8922 91.0608 54.8038C91.0665 54.8614 91.0943 54.9143 91.1381 54.9509C91.1818 54.9874 91.238 55.0047 91.2942 54.9989C91.3504 54.9931 91.4021 54.9646 91.4378 54.9198C91.4735 54.8749 91.4904 54.8174 91.4847 54.7598C91.305 52.914 91.5413 51.0505 92.1755 49.313C92.8097 47.5754 93.8248 46.0101 95.1426 44.7377C96.4605 43.4652 98.0459 42.5195 99.7768 41.9734C101.508 41.4273 103.338 41.2954 105.126 41.5879L117.795 43.3614C117.848 43.3593 117.898 43.3372 117.935 43.2995C117.973 43.2619 117.996 43.2112 118 43.1574C118.003 43.1035 117.987 43.0502 117.954 43.0078C117.922 42.9653 117.875 42.9367 117.823 42.9273Z" fill="#F3387E"/>
<path d="M178.089 75.9261C159.612 72.1354 146.89 70.7058 130.463 70.7786L128.946 76C125.513 73.474 132.277 59.5239 135.645 54C145.528 54.6426 169.63 56.8433 179.393 60.6964C180.523 65.7871 180.068 71.1014 178.089 75.9261Z" fill="#E6E7E8"/>
<path d="M131 53.8821C127.751 58.877 125.168 64.2979 123.319 70L109.191 69.6786C108.661 65.2289 109.357 57.6554 109.778 53.545L115.045 53.6776C115.712 53.713 116.377 53.58 116.983 53.29C117.579 52.9875 118.101 52.5508 118.511 52.0124L118.52 52H124.065C124.059 53.0731 124.683 53.6855 126.363 53.7147C127.702 53.7406 129.264 53.7967 131 53.8821Z" fill="#E6E7E8"/>
<path d="M104.006 71.1717C91.7782 71.0233 79.5283 70.7594 65.9653 73C63.7913 68.3811 63.4064 63.1375 64.8831 58.2581C78.1082 55.7157 91.5292 54.2912 105 54C104.121 59.6803 103.788 65.4297 104.006 71.1717Z" fill="#E6E7E8"/>
<path d="M66.9679 137.672L53.2698 115.541L59.6393 117.041C59.6933 117.052 59.7492 117.041 59.7953 117.011C59.8414 116.981 59.8741 116.934 59.8865 116.88C59.899 116.826 59.8901 116.769 59.862 116.721C59.8338 116.674 59.7884 116.639 59.7354 116.625L52.8654 115.006C52.8382 114.999 52.8101 114.998 52.7825 115.003C52.7549 115.007 52.7285 115.017 52.7048 115.032C52.681 115.047 52.6604 115.066 52.6442 115.089C52.6279 115.112 52.6164 115.138 52.6101 115.165L51.005 122.093C50.993 122.148 51.0029 122.206 51.0326 122.253C51.0623 122.301 51.1094 122.335 51.1638 122.348C51.2181 122.361 51.2753 122.352 51.323 122.322C51.3707 122.293 51.405 122.246 51.4184 122.191L52.9072 115.765L66.6064 137.899C66.6363 137.947 66.6839 137.981 66.7389 137.994C66.7938 138.007 66.8516 137.998 66.8996 137.968C66.9475 137.938 66.9816 137.89 66.9944 137.834C67.0073 137.779 66.9977 137.72 66.9679 137.672Z" fill="#F3387E"/>
<path d="M209.5 60C208.808 60 208.131 59.7654 207.556 59.3259C206.98 58.8864 206.531 58.2616 206.266 57.5307C206.002 56.7998 205.932 55.9956 206.067 55.2196C206.202 54.4437 206.536 53.731 207.025 53.1716C207.515 52.6122 208.138 52.2312 208.817 52.0769C209.496 51.9225 210.2 52.0017 210.839 52.3045C211.479 52.6072 212.026 53.1199 212.41 53.7777C212.795 54.4355 213 55.2089 213 56C212.999 57.0606 212.63 58.0774 211.974 58.8274C211.318 59.5773 210.428 59.999 209.5 60ZM209.5 52.4649C208.888 52.4649 208.29 52.6723 207.781 53.0609C207.272 53.4496 206.875 54.002 206.641 54.6482C206.407 55.2945 206.346 56.0056 206.465 56.6916C206.585 57.3776 206.88 58.0077 207.312 58.5023C207.745 58.9968 208.297 59.3335 208.897 59.4698C209.497 59.6061 210.119 59.5359 210.685 59.2681C211.25 59.0002 211.733 58.5468 212.073 57.965C212.413 57.3833 212.595 56.6995 212.594 56C212.593 55.0625 212.267 54.1637 211.687 53.5009C211.107 52.8381 210.32 52.4655 209.5 52.4649Z" fill="#F3387E"/>
<path d="M156.5 182C156.006 182 155.522 181.853 155.111 181.579C154.7 181.304 154.38 180.914 154.19 180.457C154.001 180 153.952 179.497 154.048 179.012C154.144 178.527 154.383 178.082 154.732 177.732C155.082 177.383 155.527 177.144 156.012 177.048C156.497 176.952 157 177.001 157.457 177.19C157.914 177.38 158.304 177.7 158.579 178.111C158.853 178.522 159 179.006 159 179.5C159 180.163 158.737 180.799 158.268 181.268C157.799 181.737 157.163 182 156.5 182ZM156.5 177.432C156.09 177.432 155.69 177.553 155.349 177.78C155.009 178.008 154.743 178.331 154.586 178.709C154.429 179.087 154.388 179.504 154.468 179.906C154.548 180.307 154.745 180.676 155.034 180.966C155.324 181.256 155.693 181.453 156.095 181.533C156.496 181.613 156.913 181.572 157.291 181.415C157.669 181.259 157.993 180.993 158.22 180.653C158.448 180.312 158.569 179.912 158.569 179.502C158.569 178.953 158.351 178.426 157.963 178.038C157.575 177.649 157.049 177.43 156.5 177.43V177.432Z" fill="#F3387E"/>
<path d="M70.7907 16.9982C70.6793 16.9982 71.1172 17.2332 63.1031 12.3995C63.0552 12.3705 63.0206 12.3234 63.0067 12.2683C62.9928 12.2131 63.0008 12.1546 63.029 12.1056C63.0572 12.0566 63.1033 12.021 63.1571 12.0068C63.2109 11.9926 63.2681 12.0008 63.3159 12.0297L70.8921 16.5942C70.9327 16.6174 70.9647 16.6538 70.983 16.6975C71.0013 16.7413 71.0049 16.7901 70.9934 16.8362C70.9818 16.8823 70.9556 16.9232 70.919 16.9525C70.8823 16.9818 70.8372 16.9979 70.7907 16.9982Z" fill="#F3387E"/>
<path d="M185.2 23.9999C185.154 23.9991 185.11 23.9798 185.075 23.9449C185.04 23.91 185.015 23.8617 185.005 23.8076C184.995 23.7535 185 23.6969 185.019 23.6467C185.039 23.5965 185.071 23.5557 185.112 23.5309L192.718 19.0205C192.766 18.9951 192.82 18.9932 192.868 19.0153C192.917 19.0373 192.957 19.0816 192.98 19.1388C193.002 19.196 193.006 19.2617 192.99 19.3222C192.974 19.3827 192.94 19.4332 192.894 19.4633C185.092 24.0824 185.307 23.9999 185.2 23.9999Z" fill="#F3387E"/>
<path d="M38.0009 39.7561L38.6792 31.1971C38.6837 31.1389 38.7049 31.0856 38.7381 31.0489C38.7713 31.0122 38.8138 30.995 38.8562 31.0013C38.8987 31.0075 38.9375 31.0365 38.9643 31.082C38.9911 31.1276 39.0036 31.1858 38.9991 31.244L38.3208 39.8029C38.3163 39.8611 38.2951 39.9144 38.2619 39.9511C38.2287 39.9878 38.1862 40.005 38.1438 39.9987C38.1013 39.9925 38.0625 39.9635 38.0357 39.918C38.0089 39.8724 37.9964 39.8142 38.0009 39.7561Z" fill="#F3387E"/>
<path d="M42.797 36L34.1976 35.3219C34.1687 35.3197 34.1407 35.3133 34.1152 35.3031C34.0897 35.293 34.0672 35.2793 34.049 35.2628C34.0308 35.2463 34.0172 35.2273 34.009 35.207C34.0008 35.1866 33.9982 35.1653 34.0013 35.1443C34.0043 35.1232 34.0131 35.1028 34.027 35.0841C34.0409 35.0655 34.0597 35.0491 34.0823 35.0358C34.1049 35.0225 34.1308 35.0125 34.1587 35.0066C34.1865 35.0006 34.2157 34.9987 34.2446 35.0009L42.8264 35.6816C42.8781 35.6899 42.924 35.7114 42.9558 35.7423C42.9875 35.7732 43.0031 35.8115 42.9995 35.85C42.9959 35.8886 42.9735 35.9249 42.9364 35.9525C42.8992 35.98 42.8498 35.9969 42.797 36Z" fill="#F3387E"/>
<path d="M197.438 71.7208C198.048 71.8624 199.882 72.2637 200.13 71.695C200.26 71.3993 200.502 70.8475 194.684 68.0431C193.005 67.2512 191.284 66.5485 189.53 65.9379C189.528 65.3447 189.728 64.7681 190.096 64.3013C190.929 63.2999 191.202 62.594 190.905 62.2028C189.993 61.0047 185.904 64.724 182.402 63.709C182.375 63.709 180.878 63.2976 179.986 63.0638C179.889 62.4467 179.768 61.8274 179.623 61.2137C179.615 61.1805 179.599 61.1497 179.577 61.1239C179.554 61.0981 179.526 61.078 179.494 61.0654C176.369 59.9446 173.154 59.0873 169.884 58.5027C171.757 57.7306 173.453 56.5909 174.87 55.1522C176.288 53.7134 177.398 52.0051 178.134 50.13C180.021 45.6667 180.015 42.4026 178.117 40.4311C173.201 35.3271 157.329 40.5064 154.345 41.5416C158.921 30.5996 146.835 33.7186 136.177 38.9643C137.248 36.6309 136.662 35.4282 135.944 34.8224C133.692 32.924 127.169 34.5762 123.643 37.0951C122.885 37.6328 122.164 38.2201 121.485 38.853C117.454 42.6251 115.732 45.452 116.364 47.2537C116.837 48.6025 118.506 49.0814 119.918 49.2353C119.22 51.8205 117.708 54.1033 115.002 53.9797C98.303 53.473 81.6001 54.8554 65.2164 58.1003C65.1787 58.1079 65.1437 58.1253 65.115 58.1508C65.0863 58.1763 65.065 58.2089 65.0533 58.2453C64.8403 58.9166 64.6652 59.5991 64.5288 60.2898C62.1206 60.7765 56.8263 59.3827 55.6369 58.8061C54.6401 58.3262 53.991 58.2565 53.7113 58.6004C53.3975 58.9792 53.6388 59.6952 54.4283 60.736C54.7891 61.2135 54.9561 61.808 54.8961 62.4018C53.1273 62.9368 51.388 63.5637 49.6855 64.28C43.7432 66.8326 43.963 67.3934 44.0831 67.6947C44.3096 68.2724 46.156 67.9498 46.7722 67.834C45.5262 68.4343 39.4264 71.6938 40.0437 72.8706C40.5161 73.7698 44.3402 72.1861 45.3143 71.7837C44.8918 72.0917 44.4546 72.43 44.0015 72.8055C42.5131 74.0362 42.5369 74.4993 42.6841 74.7421C43.0421 75.3232 44.6313 74.7095 45.2668 74.4465C45.9691 74.1565 46.626 73.8845 47.24 73.626C46.5524 74.2104 44.8341 75.6885 45.3279 76.436C45.7652 77.0991 47.428 76.4663 48.1518 76.146C51.9612 74.4678 60.9924 71.3746 65.4826 71.378C65.6774 71.9242 65.8934 72.472 66.1305 73.0213C66.1489 73.0641 66.1811 73.0997 66.2222 73.1223C66.2632 73.1449 66.3107 73.1532 66.357 73.146C79.2702 71.0003 90.8172 71.1757 103.639 71.333C103.772 75.619 104.434 79.8727 105.608 83.9993C105.027 85.4881 104.602 87.0324 104.34 88.6077C96.1503 88.1664 87.9381 88.3961 79.7867 89.2944C77.6637 89.5199 75.629 90.2594 73.8616 91.4481C72.0942 92.6368 70.6482 94.2382 69.6507 96.1115C68.6533 97.9847 68.1349 100.073 68.1413 102.191C68.1477 104.31 68.6786 106.394 69.6873 108.262C76.3821 120.75 83.7948 132.847 91.8888 144.491C91.9085 144.519 91.9346 144.542 91.965 144.557C91.9953 144.573 92.029 144.581 92.0632 144.581C93.4702 144.444 94.864 144.196 96.2317 143.841C97.3994 146.497 98.2132 149.293 98.6523 152.158C99.8392 158.915 101.756 165.526 104.369 171.875C104.386 171.912 104.413 171.944 104.448 171.966C104.482 171.988 104.522 172 104.563 172C104.604 172 104.645 171.988 104.679 171.966C104.714 171.944 104.741 171.912 104.758 171.875C109.489 161.31 110.195 152.22 111.744 145.992C111.754 145.955 111.754 145.916 111.744 145.88C110.493 143.535 109.06 141.289 107.46 139.163L106.293 137.606C107.254 136.448 108.09 135.191 108.785 133.858C108.803 133.823 108.811 133.783 108.808 133.743C108.805 133.704 108.791 133.666 108.766 133.634C103.011 125.571 97.8037 117.137 93.1789 108.388C96.9276 109.768 100.801 110.787 104.746 111.431C107.053 121.133 112.74 129.714 120.804 135.659C123.033 137.334 125.635 138.453 128.39 138.923C131.146 139.392 133.975 139.198 136.64 138.357C149.503 134.273 161.587 128.084 172.393 120.045C172.424 120.022 172.447 119.991 172.462 119.956C172.476 119.921 172.48 119.882 172.475 119.845C172.289 118.596 172.024 117.361 171.682 116.145C174.57 114.771 177.662 113.863 180.84 113.457C187.656 112.348 194.332 110.514 200.752 107.986C200.765 107.981 200.778 107.973 200.789 107.965L200.819 107.94C200.829 107.93 200.838 107.919 200.846 107.907L200.862 107.877L200.875 107.836V107.794V107.774C200.872 107.737 200.859 107.701 200.838 107.671C200.816 107.641 200.787 107.616 200.753 107.601C190.239 102.837 181.175 102.018 174.9 100.448C174.643 100.383 174.684 100.38 174.472 100.479C171.399 102.102 168.472 103.985 165.725 106.106C164.753 105.169 163.712 104.305 162.612 103.521C162.577 103.496 162.536 103.482 162.493 103.481C162.451 103.48 162.409 103.491 162.373 103.514C153.368 109.186 142.85 115.996 132.613 118.674C130.096 116.791 127.422 112.492 125.839 108.963C127.397 108.165 128.764 107.044 129.849 105.677C130.934 104.31 131.711 102.729 132.129 101.039C133.929 93.3509 128.004 84.4242 127.343 83.462L130.865 71.4353C146.98 71.3825 159.333 72.8403 178.074 76.5202C178.114 76.5277 178.156 76.5234 178.194 76.5078C178.232 76.4923 178.264 76.4661 178.288 76.4326C178.381 76.2887 178.854 74.859 178.967 74.5218C183.674 74.9714 191.648 77.968 195.701 79.9642C196.42 80.3182 198.045 81.0151 198.511 80.3733C199.036 79.6494 197.379 78.0983 196.722 77.4869C197.952 78.2027 199.291 78.7177 200.686 79.0121C200.788 79.0239 200.891 79.0101 200.986 78.972C201.081 78.9339 201.165 78.8727 201.23 78.7941C201.387 78.5592 201.432 78.0961 199.996 76.8035C199.56 76.4101 199.138 76.0538 198.729 75.7278C199.653 76.1561 203.438 77.9174 203.949 77.0362C204.611 75.8874 198.679 72.3873 197.438 71.7208ZM116.766 47.1144C115.832 44.4516 121.731 38.8991 123.889 37.4402C125.599 36.2847 126.933 36.0464 127.741 36.7478C128.842 37.6976 128.661 39.9815 127.967 41.4247C127.65 42.4172 128.42 42.5038 129.447 42.2441C131.622 41.6978 131.534 45.0148 127.703 45.1485C127.269 45.3061 126.895 45.5931 126.632 45.9701C125.586 48.208 124.253 50.7909 124.147 52.3016H119.019C119.263 51.9487 119.478 51.5766 119.661 51.1888C120.75 50.5706 121.806 49.8953 122.822 49.1657C122.843 49.133 122.854 49.0954 122.855 49.0569C122.856 49.0184 122.846 48.9804 122.826 48.9471C122.807 48.9137 122.779 48.8863 122.745 48.8678C122.711 48.8493 122.672 48.8403 122.633 48.8419C121.824 48.8898 121.014 48.8898 120.205 48.8419C118.872 48.725 117.194 48.3328 116.766 47.1144ZM118.691 52.7242H124.142C124.228 53.8482 125.077 54.4102 126.729 54.4394C128.012 54.463 129.501 54.5136 131.162 54.5889C127.911 59.4745 125.311 64.7564 123.425 70.3035L109.107 69.9899C108.541 64.9589 109.554 55.6893 109.716 54.2663C111.528 54.2821 113.283 54.3281 114.983 54.4023C115.692 54.441 116.401 54.3086 117.047 54.0163C117.694 53.7241 118.26 53.2807 118.696 52.7242H118.691ZM47.4575 70.3788C42.1687 72.8201 40.5625 72.8515 40.4198 72.6773C40.37 72.4964 41.0915 71.4859 44.9145 69.2896C47.4376 67.8803 50.1042 66.7406 52.8696 65.8895C52.2148 66.726 51.6496 67.6278 51.183 68.5804C49.906 69.1052 48.6619 69.7058 47.4575 70.3788ZM45.1025 74.0565C43.5949 74.6791 43.0999 74.5825 43.05 74.5229C43.05 74.5229 42.9786 74.2015 44.2756 73.1303C46.2596 71.4595 48.5036 70.1192 50.9202 69.1615C50.5852 69.9314 50.3261 70.7316 50.1466 71.5511C49.5564 71.9366 49.0614 72.257 48.606 72.575C47.6376 73.0055 46.4448 73.5012 45.1025 74.0565ZM47.9796 75.7571C46.5966 76.3674 45.8048 76.3854 45.6836 76.201C45.6734 76.1864 45.4571 75.8133 46.9761 74.4229C47.9229 73.5673 48.9466 72.7994 50.0344 72.1288C49.9621 72.5371 49.9242 72.9507 49.9211 73.3652C49.9223 73.4205 49.9453 73.4731 49.9851 73.5117C50.0249 73.5504 50.0784 73.572 50.1341 73.572C50.1911 73.5706 50.2453 73.5471 50.285 73.5065C50.3248 73.466 50.3471 73.4117 50.3471 73.3551C50.2893 69.3975 53.6399 65.6602 53.6886 65.5478C53.7104 65.5126 53.7213 65.4717 53.7199 65.4303C53.7185 65.389 53.7049 65.3489 53.6807 65.3152C53.6566 65.2814 53.623 65.2554 53.5842 65.2404C53.5453 65.2255 53.5028 65.2221 53.4621 65.2309C53.3488 65.2601 50.5759 66.1986 49.0444 66.8213C47.1403 67.462 44.7287 67.7812 44.4818 67.5598C44.4965 67.4553 44.8216 66.8224 49.8487 64.6588C51.5046 63.9623 53.1957 63.3516 54.9154 62.8289C54.9453 63.1529 55.0145 63.4722 55.1215 63.7798C55.8963 66.0278 57.4821 67.344 59.8665 66.9034C59.919 66.8903 59.9644 66.8578 59.9937 66.8126C60.0229 66.7675 60.0337 66.713 60.0239 66.6602C60.0141 66.6074 59.9844 66.5603 59.9409 66.5284C59.8973 66.4966 59.8432 66.4823 59.7895 66.4886C57.2408 66.9585 56.0628 65.2005 55.5248 63.6427C55.0581 62.2939 55.655 61.6431 54.7624 60.4719C53.982 59.4479 53.9446 58.9725 54.0341 58.8646C54.1236 58.7567 54.503 58.7263 55.45 59.1816C56.6869 59.7795 61.8465 61.1508 64.4461 60.7304C63.8747 64.1556 64.1793 67.6684 65.3319 70.9464C60.6402 71.0026 51.4753 74.2161 47.9763 75.7571H47.9796ZM66.4567 72.6998C64.4116 68.2389 64.0459 63.1982 65.4259 58.4925C78.3305 56.0061 91.4232 54.6021 104.565 54.2956C103.751 59.794 103.436 65.3539 103.625 70.9082C90.9078 70.7486 79.3653 70.5721 66.4533 72.6998H66.4567ZM132.436 119.075C134.662 121.009 135.372 121.638 135.626 121.842C135.81 121.99 135.838 121.954 136.013 121.823C136.496 121.451 138.311 119.937 145.572 113.955C151.146 111.091 156.838 107.501 162.479 103.951C165.11 105.769 167.322 108.12 168.968 110.849C170.615 113.578 171.659 116.623 172.03 119.783C161.291 127.755 149.288 133.895 136.514 137.951C133.915 138.772 131.155 138.962 128.467 138.504C125.778 138.047 123.24 136.955 121.066 135.321C114.199 130.266 109.05 123.252 106.306 115.217C112.365 114.151 118.273 112.37 123.905 109.912C124.442 109.695 124.966 109.448 125.475 109.172C127.095 112.78 129.848 117.18 132.436 119.075ZM131.716 100.948C131.295 102.628 130.509 104.196 129.413 105.543C128.318 106.889 126.938 107.982 125.372 108.744L122.975 109.848C117.377 112.045 110.899 111.983 104.953 111.037C100.826 110.376 96.7791 109.297 92.8754 107.814C91.7121 105.671 90.7855 103.631 90.7753 103.61C90.752 103.558 90.7092 103.519 90.6563 103.499C90.6034 103.479 90.5448 103.481 90.4932 103.504C90.4417 103.527 90.4016 103.57 90.3816 103.622C90.3616 103.674 90.3635 103.733 90.3868 103.784C92.4053 108.541 101.733 124.915 108.341 133.773C104.977 140.092 99.4724 143.362 92.1697 144.143C84.113 132.545 76.7318 120.498 70.0622 108.063C69.0866 106.257 68.5732 104.24 68.567 102.191C68.5609 100.142 69.0622 98.1222 70.027 96.3103C70.9917 94.4983 72.3904 92.9493 74.0999 91.7995C75.8094 90.6496 77.7774 89.9341 79.8309 89.7159C88.0312 88.7906 96.2965 88.565 104.536 89.0415C107.294 89.1995 110.042 89.5046 112.767 89.9553C113.16 89.9688 113.073 89.5777 112.859 89.5428C110.179 89.1058 107.479 88.8023 104.768 88.6335C105.017 87.0966 105.435 85.5912 106.014 84.1443C106.032 84.1183 106.044 84.0886 106.048 84.0575C106.053 84.0263 106.051 83.9945 106.041 83.9645C102.343 71.9186 104.704 56.0894 104.992 54.2911C106.449 54.2656 107.88 54.2573 109.285 54.2663C109.104 55.8579 108.09 65.2466 108.704 70.227V70.2484C108.712 70.2803 108.727 70.31 108.748 70.335C108.77 70.36 108.797 70.3797 108.828 70.3923C108.928 70.426 123.553 70.7362 123.617 70.7294C124.104 70.5811 125.655 63.401 131.659 54.617C132.878 54.6766 134.164 54.7485 135.505 54.8328C133.049 58.9309 125.408 73.4506 128.952 76.4663L126.907 83.4463L126.9 83.4789C126.895 83.5201 126.902 83.5619 126.921 83.5992L126.938 83.6284C127.009 83.7172 133.569 93.0317 131.72 100.946L131.716 100.948ZM130.705 71.0172C130.449 71.043 130.562 70.9621 129.086 76.0055C126.558 73.2472 132.303 60.8878 135.98 54.8654C146.366 55.5398 169.688 57.7372 179.229 61.4205C180.296 66.3187 179.862 71.4214 177.983 76.0729C159.274 72.2671 146.887 70.9419 130.71 71.0149L130.705 71.0172ZM198.161 80.1294C198.032 80.307 197.242 80.2564 195.887 79.5888C191.729 77.542 183.891 74.6083 179.091 74.1138C180.159 70.6895 180.485 67.0795 180.047 63.5213C183.356 64.3946 183.898 64.9948 189.131 62.7165C190.095 62.2973 190.484 62.3602 190.56 62.4591C190.636 62.558 190.587 63.0436 189.767 64.0327C188.842 65.1443 189.405 65.9727 188.634 67.4508C187.773 69.0929 186.142 70.9127 183.238 70.2607C183.21 70.2546 183.182 70.2539 183.155 70.2586C183.127 70.2633 183.101 70.2733 183.077 70.2882C183.053 70.303 183.033 70.3223 183.017 70.345C183.001 70.3676 182.989 70.3933 182.983 70.4203C182.977 70.4474 182.976 70.4755 182.981 70.5028C182.985 70.5302 182.996 70.5564 183.01 70.5799C183.025 70.6033 183.045 70.6237 183.068 70.6397C183.091 70.6557 183.116 70.6671 183.144 70.6732C185.755 71.26 187.775 69.9989 189.011 67.6463C189.227 67.2445 189.38 66.8125 189.464 66.365C191.177 66.9637 192.858 67.651 194.498 68.4241C199.421 70.7969 199.726 71.4443 199.75 71.514C199.479 71.7601 197.083 71.3386 195.208 70.6148C193.806 69.9752 190.975 68.8726 190.859 68.8389C190.82 68.8298 190.78 68.8315 190.742 68.8438C190.705 68.8562 190.671 68.8787 190.646 68.9088C190.621 68.9389 190.604 68.9754 190.598 69.0143C190.593 69.0532 190.598 69.0929 190.614 69.1289L190.622 69.1457L190.637 69.1693C192.503 71.3991 193.556 74.189 193.625 77.0867C193.623 77.1417 193.642 77.1952 193.68 77.236C193.717 77.2768 193.768 77.3017 193.823 77.3053C193.879 77.309 193.933 77.2912 193.975 77.2556C194.018 77.22 194.044 77.1695 194.05 77.1148C194.066 76.6992 194.047 76.283 193.993 75.8706C195.052 76.5862 196.043 77.397 196.953 78.2928C198.412 79.7495 198.177 80.1125 198.166 80.1271L198.161 80.1294ZM199.701 77.1193C200.947 78.2433 200.866 78.5625 200.866 78.5625C200.813 78.6199 200.315 78.6974 198.834 78.0107C194.756 76.1212 195.729 76.6023 193.902 75.294C193.759 74.4677 193.535 73.6572 193.233 72.874C195.605 73.9362 197.79 75.3688 199.705 77.1171L199.701 77.1193ZM203.57 76.8271C203.418 77.0013 201.814 76.899 196.637 74.2419C195.462 73.5187 194.245 72.866 192.992 72.2873C192.566 71.3162 192.04 70.3914 191.422 69.5279C194.54 70.7362 195.181 71.0779 195.067 71.0262C199.653 73.1033 203.745 76.2898 203.571 76.8249L203.57 76.8271Z" fill="#120409"/>
<path d="M122.797 74.1773C108.381 74.0182 109.153 73.9425 109.045 74.0507C108.937 74.1589 108.962 73.673 109.82 82.4113C109.832 82.5477 109.453 82.2653 115.15 85.9651C115.187 85.9879 115.23 86 115.274 86C115.318 86 115.361 85.9879 115.398 85.9651C121.352 82.2555 121.031 82.473 121.058 82.3583C123.096 73.8819 123.061 74.3645 122.966 74.2519C122.946 74.2284 122.92 74.2094 122.891 74.1965C122.862 74.1835 122.83 74.177 122.797 74.1773ZM120.651 82.1927L115.278 85.5474L110.245 82.2793L109.446 74.4013L122.521 74.5852L120.651 82.1927Z" fill="#120409"/>
<path d="M69 60C69.0084 60.2682 69.1175 60.5224 69.3041 60.709C69.4907 60.8957 69.7403 61 70 61C70.2597 61 70.5093 60.8957 70.6959 60.709C70.8825 60.5224 70.9916 60.2682 71 60C70.9916 59.7318 70.8825 59.4776 70.6959 59.2909C70.5093 59.1043 70.2597 59 70 59C69.7403 59 69.4907 59.1043 69.3041 59.2909C69.1175 59.4776 69.0084 59.7318 69 60Z" fill="#120409"/>
<path d="M83 67C83 67.2652 83.158 67.5196 83.4393 67.7071C83.7206 67.8946 84.1022 68 84.5 68C84.8978 68 85.2794 67.8946 85.5607 67.7071C85.842 67.5196 86 67.2652 86 67C86 66.7348 85.842 66.4804 85.5607 66.2929C85.2794 66.1054 84.8978 66 84.5 66C84.1022 66 83.7206 66.1054 83.4393 66.2929C83.158 66.4804 83 66.7348 83 67Z" fill="#120409"/>
<path d="M99 57C99 57.2652 99.158 57.5196 99.4393 57.7071C99.7206 57.8946 100.102 58 100.5 58C100.898 58 101.279 57.8946 101.561 57.7071C101.842 57.5196 102 57.2652 102 57C102 56.7348 101.842 56.4804 101.561 56.2929C101.279 56.1054 100.898 56 100.5 56C100.102 56 99.7206 56.1054 99.4393 56.2929C99.158 56.4804 99 56.7348 99 57Z" fill="#120409"/>
<path d="M140 58.5C140 58.8978 140.105 59.2794 140.293 59.5607C140.48 59.842 140.735 60 141 60C141.265 60 141.52 59.842 141.707 59.5607C141.895 59.2794 142 58.8978 142 58.5C142 58.1022 141.895 57.7206 141.707 57.4393C141.52 57.158 141.265 57 141 57C140.735 57 140.48 57.158 140.293 57.4393C140.105 57.7206 140 58.1022 140 58.5Z" fill="#120409"/>
<path d="M117 66C116.992 65.7318 116.882 65.4776 116.696 65.2909C116.509 65.1043 116.26 65 116 65C115.74 65 115.491 65.1043 115.304 65.2909C115.117 65.4776 115.008 65.7318 115 66C115.008 66.2682 115.117 66.5224 115.304 66.7091C115.491 66.8957 115.74 67 116 67C116.26 67 116.509 66.8957 116.696 66.7091C116.882 66.5224 116.992 66.2682 117 66Z" fill="#120409"/>
<path d="M155 69C155.013 69.2682 155.176 69.5224 155.456 69.709C155.736 69.8957 156.11 70 156.5 70C156.89 70 157.264 69.8957 157.544 69.709C157.824 69.5224 157.987 69.2682 158 69C157.987 68.7318 157.824 68.4776 157.544 68.2909C157.264 68.1043 156.89 68 156.5 68C156.11 68 155.736 68.1043 155.456 68.2909C155.176 68.4776 155.013 68.7318 155 69Z" fill="#120409"/>
<path d="M173 63C173 63.2652 173.158 63.5196 173.439 63.7071C173.721 63.8946 174.102 64 174.5 64C174.898 64 175.279 63.8946 175.561 63.7071C175.842 63.5196 176 63.2652 176 63C176 62.7348 175.842 62.4804 175.561 62.2929C175.279 62.1054 174.898 62 174.5 62C174.102 62 173.721 62.1054 173.439 62.2929C173.158 62.4804 173 62.7348 173 63Z" fill="#120409"/>
</svg>
